<?xml version="1.0" encoding="utf-8"?>
<!-- Generator: Adobe Illustrator 16.0.0, SVG Export Plug-In . SVG Version: 6.00 Build 0)  -->
<!DOCTYPE svg PUBLIC "-//W3C//DTD SVG 1.1//EN" "http://www.w3.org/Graphics/SVG/1.1/DTD/svg11.dtd">
<svg version="1.1" id="Layer_1" xmlns="http://www.w3.org/2000/svg" xmlns:xlink="http://www.w3.org/1999/xlink" x="0px" y="0px"
	 width="258px" height="167px" viewBox="0 0 258 167" enable-background="new 0 0 258 167" xml:space="preserve">
<g>
	<path fill="#FFFFFF" d="M64.364,40.106c0.164,0.945,0.415,1.879,0.752,2.807c0.171,0.469,0.35,0.93,0.539,1.388
		c0.19,0.459,0.41,0.912,0.661,1.354c0.253,0.442,0.53,0.88,0.833,1.308s0.642,0.837,1.01,1.226
		c0.188,0.195,0.378,0.374,0.581,0.542c0.201,0.171,0.409,0.337,0.631,0.499c0.227,0.183,0.452,0.344,0.679,0.482
		c0.225,0.141,0.461,0.264,0.714,0.374c0.238,0.138,0.478,0.256,0.728,0.357c0.247,0.101,0.508,0.191,0.772,0.273
		c0.266,0.084,0.534,0.144,0.798,0.184c0.264,0.041,0.525,0.082,0.779,0.126c0.279,0.036,0.545,0.056,0.806,0.065
		c0.255,0.013,0.515,0.011,0.779,0.011c0.519-0.054,1.023-0.125,1.509-0.208c0.26-0.028,0.508-0.065,0.746-0.13
		c0.236-0.063,0.469-0.141,0.69-0.219c0.169-0.047,0.277-0.087,0.335-0.125l0.184-0.048l0.156-0.042
		c0.101-0.048,0.208-0.093,0.331-0.14c0.121-0.045,0.231-0.089,0.326-0.136c0.424-0.158,0.846-0.337,1.271-0.542
		c0.424-0.201,0.826-0.411,1.217-0.625c0.403-0.218,0.8-0.452,1.188-0.699c0.389-0.251,0.767-0.514,1.139-0.787
		c1.523-1.096,2.812-2.375,3.864-3.83c0.562-0.792,1.03-1.574,1.402-2.34c0.193-0.331,0.34-0.688,0.476-1.051
		c0.069,0.368,0.103,0.733,0.201,1.103c0.078,0.201,0.141,0.4,0.193,0.599c0.052,0.195,0.13,0.391,0.227,0.586
		c0.182,0.439,0.387,0.826,0.612,1.168c0.121,0.208,0.251,0.4,0.381,0.579c0.14,0.173,0.303,0.357,0.488,0.551
		c0.344,0.375,0.748,0.677,1.207,0.908c0.23,0.117,0.469,0.219,0.714,0.307c0.246,0.091,0.493,0.155,0.751,0.197
		c0.504,0.067,0.992,0.067,1.468,0.009c0.126-0.015,0.246-0.033,0.361-0.067c0.115-0.03,0.227-0.048,0.335-0.054
		c0.126-0.034,0.227-0.073,0.303-0.117l0.03-0.008l0.035-0.007l0.089-0.024l0.156-0.043c0.099-0.046,0.193-0.091,0.298-0.128
		c0.1-0.039,0.199-0.082,0.297-0.132c0.097-0.047,0.193-0.089,0.283-0.125c0.089-0.035,0.179-0.087,0.273-0.156
		c0.231-0.128,0.411-0.254,0.53-0.375c0.093-0.071,0.179-0.128,0.253-0.183c0.075-0.054,0.154-0.115,0.248-0.182
		c0.162-0.154,0.311-0.307,0.448-0.452c0.136-0.152,0.273-0.295,0.413-0.444c0.249-0.312,0.478-0.631,0.692-0.951
		c0.212-0.324,0.404-0.66,0.575-1.021c0.318-0.638,0.588-1.32,0.817-2.044l0.268-0.873l0.153-0.041
		c0.454-0.121,0.852-0.296,1.19-0.519c0.35-0.182,0.685-0.426,1.004-0.735c0.155-0.154,0.298-0.303,0.426-0.448
		c0.126-0.145,0.249-0.287,0.366-0.43c0.201-0.248,0.367-0.5,0.528-0.75l-0.033,4.708c0.011,0.043,0.017,0.078,0.015,0.113
		c-0.002,0.034,0,0.069,0.011,0.112c0.062,0.631,0.32,1.142,0.779,1.541c0.461,0.396,1.006,0.567,1.635,0.508
		c0.629-0.054,1.144-0.316,1.553-0.78c0.408-0.467,0.584-1.012,0.526-1.639l-0.019-0.195l-0.007-0.032l0.048-0.545
		c0.021-0.184,0.039-0.359,0.06-0.532c0.022-0.173,0.052-0.348,0.089-0.539c0.019-0.181,0.039-0.365,0.069-0.551
		c0.028-0.186,0.05-0.369,0.069-0.551c0.041-0.342,0.101-0.701,0.177-1.079c0.117-0.716,0.242-1.434,0.372-2.145
		c0.134-0.712,0.27-1.419,0.413-2.123c0.06-0.195,0.106-0.37,0.138-0.54c0.036-0.164,0.071-0.337,0.11-0.524
		c0.065-0.175,0.114-0.342,0.147-0.51c0.034-0.158,0.082-0.34,0.142-0.536c0.083-0.333,0.184-0.668,0.294-1.01
		c0.109-0.335,0.216-0.679,0.324-1.016c0.069-0.171,0.128-0.339,0.184-0.502c0.056-0.158,0.121-0.312,0.191-0.461
		c0.069-0.156,0.14-0.309,0.207-0.476c0.067-0.16,0.14-0.307,0.214-0.435c0.082-0.199,0.151-0.343,0.218-0.426
		c0.032-0.054,0.052-0.093,0.052-0.113c0.007-0.022,0.028-0.052,0.061-0.084c0.006-0.069,0.036-0.121,0.091-0.156l0.06,0.216
		c0.072,0.268,0.119,0.565,0.14,0.893c0.026,0.171,0.044,0.336,0.067,0.499c0.021,0.158,0.042,0.327,0.065,0.499
		c0.028,0.346,0.048,0.692,0.063,1.03c0.011,0.341,0.021,0.688,0.026,1.04c0.015,0.709,0.015,1.412,0,2.113
		c-0.009,0.703-0.037,1.414-0.091,2.137l-0.128,2.132c-0.017,0.183-0.033,0.363-0.052,0.543c-0.021,0.186-0.036,0.368-0.054,0.549
		l-0.021,0.538l-0.035,0.246l-0.026,0.271l0.007,0.028c-0.062,0.528,0.071,0.993,0.387,1.395c0.318,0.402,0.742,0.633,1.269,0.69
		c0.532,0.08,1.006-0.046,1.427-0.383c0.422-0.333,0.66-0.765,0.718-1.291l0.028-0.271l0.022-0.305l0.082-0.554
		c0.009-0.047,0.011-0.078,0.005-0.101c-0.003-0.017-0.003-0.052,0.006-0.103c0.019-0.093,0.033-0.186,0.041-0.277
		c0.009-0.091,0.024-0.186,0.045-0.275c0.042-0.257,0.083-0.506,0.13-0.751c0.045-0.246,0.088-0.497,0.132-0.751
		c0.115-0.477,0.229-0.96,0.342-1.455c0.11-0.495,0.236-0.984,0.372-1.462l0.42-1.412c0.071-0.242,0.141-0.478,0.227-0.71
		c0.082-0.232,0.156-0.467,0.225-0.709c0.182-0.469,0.366-0.934,0.541-1.393c0.179-0.456,0.372-0.904,0.592-1.337
		c0.099-0.205,0.21-0.413,0.331-0.622c0.119-0.212,0.24-0.418,0.363-0.63c0.121-0.208,0.259-0.4,0.413-0.575
		c0.042-0.08,0.117-0.177,0.217-0.294l0.233-0.259c0.048-0.06,0.148-0.152,0.292-0.279l-0.007,0.103
		c-0.002,0.244-0.006,0.48-0.008,0.718c-0.005,0.232-0.005,0.472-0.007,0.714c0,0.244-0.007,0.485-0.022,0.722
		c-0.015,0.236-0.024,0.476-0.024,0.72c-0.015,0.517-0.036,1.027-0.058,1.531c-0.017,0.506-0.037,1.012-0.054,1.527
		c-0.024,0.251-0.03,0.508-0.026,0.774c0.005,0.264,0.009,0.528,0.013,0.794c-0.008,0.136-0.013,0.27-0.008,0.402
		c0,0.132,0.009,0.266,0.022,0.395c-0.007,0.134-0.004,0.273,0.009,0.413c0.015,0.138,0.021,0.277,0.011,0.413
		c-0.004,0.154,0.009,0.303,0.032,0.439c0.03,0.136,0.042,0.283,0.037,0.441c0.021,0.149,0.043,0.292,0.063,0.43
		c0.028,0.138,0.052,0.291,0.078,0.461l0.13,0.499c0.03,0.104,0.056,0.195,0.076,0.277c0.024,0.083,0.06,0.177,0.108,0.271
		c0.045,0.099,0.091,0.199,0.128,0.297c0.041,0.103,0.093,0.21,0.169,0.32c0.13,0.232,0.311,0.45,0.542,0.657
		c0.061,0.067,0.134,0.128,0.214,0.178c0.08,0.041,0.145,0.089,0.205,0.142c0.08,0.048,0.16,0.083,0.246,0.113
		c0.087,0.036,0.177,0.06,0.273,0.08c0.169,0.065,0.336,0.11,0.499,0.134c0.087-0.003,0.171-0.003,0.251-0.003
		c0.076,0,0.145-0.006,0.205-0.022c0.073,0.004,0.136-0.003,0.199-0.019c0.061-0.017,0.126-0.022,0.193-0.017l0.186-0.05
		l0.085-0.058l0.062-0.017l0.063-0.017l0.032-0.007l0.062-0.019c0.041-0.009,0.071-0.024,0.087-0.039
		c0.019-0.015,0.039-0.03,0.062-0.036c0.082-0.02,0.178-0.067,0.292-0.143c0.173-0.091,0.329-0.193,0.463-0.309
		c0.14-0.11,0.268-0.233,0.391-0.352c0.123-0.121,0.242-0.236,0.359-0.344c0.111-0.11,0.208-0.231,0.283-0.361
		c0.182-0.227,0.351-0.465,0.509-0.718c0.153-0.253,0.298-0.497,0.434-0.733c0.056-0.123,0.113-0.242,0.17-0.361
		c0.058-0.113,0.115-0.232,0.171-0.361c0.074-0.13,0.136-0.257,0.177-0.383c0.046-0.119,0.097-0.242,0.154-0.37
		c0.105-0.251,0.193-0.499,0.266-0.739c0.11-0.249,0.197-0.493,0.269-0.734c0.193-0.519,0.35-1.014,0.469-1.488
		c0.066-0.24,0.134-0.482,0.2-0.724c0.053-0.164,0.097-0.339,0.142-0.514c0.06,0.3,0.082,0.599,0.164,0.9
		c0.074,0.201,0.141,0.398,0.193,0.597c0.052,0.195,0.126,0.393,0.223,0.588c0.187,0.437,0.388,0.824,0.61,1.167
		c0.127,0.208,0.253,0.403,0.387,0.579c0.142,0.177,0.298,0.359,0.484,0.552c0.342,0.378,0.747,0.677,1.205,0.908
		c0.23,0.116,0.469,0.218,0.715,0.305c0.249,0.091,0.498,0.156,0.751,0.197c0.506,0.067,0.997,0.071,1.466,0.009
		c0.134-0.013,0.253-0.035,0.368-0.065c0.112-0.03,0.228-0.048,0.335-0.054c0.123-0.035,0.224-0.074,0.302-0.117l0.029-0.007
		l0.03-0.007l0.097-0.024l0.152-0.042c0.101-0.049,0.197-0.093,0.302-0.13c0.1-0.037,0.197-0.082,0.297-0.13
		c0.097-0.048,0.19-0.089,0.283-0.126c0.089-0.035,0.179-0.085,0.275-0.152c0.23-0.13,0.409-0.257,0.528-0.376
		c0.093-0.072,0.171-0.132,0.249-0.186c0.078-0.052,0.16-0.115,0.253-0.182c0.156-0.154,0.302-0.307,0.443-0.45
		c0.134-0.153,0.274-0.298,0.412-0.447c0.25-0.312,0.48-0.626,0.696-0.948c0.208-0.324,0.401-0.663,0.573-1.023
		c0.315-0.634,0.588-1.319,0.814-2.044l0.268-0.871l0.152-0.041c0.458-0.121,0.856-0.295,1.191-0.519
		c0.35-0.185,0.685-0.428,1.004-0.735c0.156-0.153,0.298-0.305,0.428-0.447c0.123-0.147,0.25-0.288,0.368-0.432
		c0.246-0.311,0.47-0.625,0.663-0.941c0.189-0.318,0.364-0.644,0.521-0.973c0.167-0.29,0.312-0.616,0.432-0.98
		c0.066-0.173,0.134-0.342,0.201-0.504c0.066-0.16,0.134-0.331,0.2-0.502c0.086-0.246,0-0.444-0.26-0.595
		c-0.135-0.074-0.261-0.091-0.38-0.05c-0.123,0.047-0.224,0.132-0.298,0.266c-0.074,0.126-0.156,0.273-0.238,0.428
		c-0.074,0.155-0.163,0.3-0.26,0.436c-0.097,0.138-0.187,0.271-0.275,0.407c-0.086,0.136-0.179,0.27-0.271,0.404
		c-0.197,0.253-0.406,0.499-0.621,0.733c-0.216,0.234-0.439,0.45-0.678,0.647c-0.126,0.101-0.249,0.193-0.372,0.285
		c-0.119,0.085-0.238,0.167-0.35,0.24c-0.089,0.071-0.189,0.126-0.29,0.162c-0.097,0.041-0.197,0.082-0.298,0.128
		c0.008-0.134,0.022-0.266,0.045-0.392c0.022-0.128,0.037-0.261,0.045-0.393c0.052-0.369,0.089-0.729,0.111-1.083
		c0.015-0.346,0.029-0.708,0.037-1.088c0.015-0.69-0.015-1.417-0.082-2.173c-0.029-0.368-0.082-0.74-0.148-1.109
		c-0.063-0.37-0.16-0.74-0.279-1.105c-0.056-0.21-0.115-0.402-0.189-0.582c-0.067-0.181-0.149-0.372-0.246-0.565
		c-0.097-0.194-0.212-0.387-0.342-0.577c-0.127-0.186-0.283-0.369-0.458-0.542c-0.183-0.173-0.383-0.34-0.603-0.504
		c-0.265-0.149-0.524-0.268-0.793-0.352c-0.241-0.07-0.521-0.117-0.841-0.141c-0.148-0.004-0.297,0.007-0.42,0.028
		c-0.13,0.022-0.257,0.041-0.383,0.054c-0.417,0.113-0.781,0.244-1.095,0.391c-0.323-0.291-0.699-0.486-1.138-0.59
		c-0.443-0.104-0.886-0.085-1.332,0.058l-0.033,0.007l-0.063,0.017c-0.037,0.011-0.067,0.024-0.071,0.037
		c-0.011,0.013-0.021,0.022-0.041,0.026l-0.253,0.067l-0.438,0.218c-0.134,0.082-0.265,0.152-0.391,0.221
		c-0.123,0.067-0.242,0.147-0.346,0.244c-0.473,0.326-0.863,0.687-1.18,1.079c-0.339,0.402-0.61,0.787-0.822,1.153
		c-0.127,0.19-0.242,0.378-0.35,0.558c-0.104,0.184-0.201,0.377-0.275,0.575c-0.183,0.406-0.343,0.789-0.477,1.157
		c-0.134,0.37-0.245,0.757-0.335,1.159c-0.212,0.787-0.36,1.546-0.454,2.279c-0.1,0.782-0.163,1.542-0.186,2.281
		c-0.015,0.379-0.008,0.763,0.008,1.148c0,0.095,0.015,0.191,0.019,0.285l-0.071,0.141l-0.141,0.339
		c-0.06,0.128-0.144,0.327-0.257,0.599c-0.117,0.277-0.211,0.482-0.285,0.612c-0.121,0.21-0.234,0.43-0.34,0.655
		c-0.106,0.229-0.22,0.448-0.341,0.658c-0.236,0.441-0.477,0.871-0.718,1.29c-0.242,0.42-0.499,0.832-0.767,1.235
		c-0.06,0.108-0.123,0.207-0.186,0.303c-0.065,0.093-0.136,0.195-0.218,0.307c-0.087,0.087-0.156,0.179-0.21,0.271
		c-0.05,0.093-0.123,0.183-0.208,0.271c-0.089,0.091-0.164,0.177-0.229,0.261c-0.071,0.085-0.134,0.167-0.199,0.255
		c-0.093,0.069-0.173,0.139-0.242,0.212c-0.07,0.076-0.15,0.147-0.244,0.218c-0.102,0.115-0.219,0.21-0.352,0.29
		c-0.007-0.021-0.007-0.033,0.004-0.046c0.007-0.013,0.007-0.034,0.003-0.054c-0.003-0.085-0.007-0.182-0.011-0.277
		c-0.008-0.101,0-0.207,0.015-0.322c0.015-0.114,0.022-0.222,0.03-0.324c0.005-0.101,0.015-0.208,0.028-0.324
		c0.013-0.114,0.028-0.229,0.045-0.342c0.011-0.117,0.024-0.231,0.039-0.344c0.015-0.117,0.031-0.232,0.056-0.35
		c0.026-0.115,0.041-0.232,0.056-0.346c0.048-0.236,0.089-0.469,0.128-0.701c0.037-0.231,0.08-0.475,0.121-0.731
		c0.097-0.469,0.189-0.947,0.279-1.437c0.091-0.493,0.192-0.995,0.294-1.508c0.043-0.259,0.085-0.512,0.128-0.77
		c0.043-0.253,0.085-0.51,0.128-0.765c0.041-0.255,0.08-0.516,0.108-0.778s0.062-0.53,0.097-0.807
		c0.032-0.296,0.054-0.584,0.067-0.869c0.019-0.281,0.026-0.575,0.032-0.888c-0.006-0.177-0.017-0.344-0.036-0.509
		c-0.022-0.158-0.044-0.322-0.068-0.493c-0.006-0.108-0.021-0.205-0.043-0.29c-0.022-0.082-0.039-0.177-0.045-0.289
		c-0.028-0.102-0.056-0.205-0.082-0.309c-0.03-0.104-0.069-0.214-0.123-0.333c-0.056-0.205-0.184-0.475-0.381-0.798
		c-0.041-0.074-0.083-0.152-0.128-0.229c-0.043-0.08-0.097-0.162-0.169-0.257c-0.069-0.093-0.138-0.171-0.212-0.242
		c-0.074-0.065-0.167-0.142-0.277-0.223c-0.175-0.155-0.379-0.298-0.616-0.438c-0.251-0.108-0.497-0.199-0.737-0.266
		c-0.26-0.063-0.504-0.097-0.727-0.104c-0.112-0.015-0.216-0.017-0.3-0.004c-0.087,0.011-0.182,0.022-0.292,0.03
		c-0.123,0.03-0.21,0.043-0.257,0.036l-0.126,0.032l-0.121,0.035l-0.032,0.007l-0.032,0.009l-0.032,0.007l-0.093,0.026
		c-0.037,0.032-0.095,0.056-0.177,0.078c-0.121,0.058-0.238,0.104-0.361,0.149c-0.123,0.042-0.225,0.097-0.322,0.167
		c-0.216,0.102-0.408,0.219-0.571,0.353c-0.162,0.134-0.311,0.273-0.454,0.417c-0.279,0.279-0.523,0.567-0.731,0.865
		c-0.095,0.136-0.186,0.281-0.268,0.438c-0.078,0.156-0.156,0.299-0.233,0.43c-0.249,0.554-0.452,1.129-0.601,1.724
		c-0.028,0.073-0.045,0.145-0.06,0.214c-0.015,0.073-0.037,0.134-0.067,0.186l-0.087,0.422c-0.028,0.142-0.06,0.275-0.087,0.408
		c-0.034,0.132-0.063,0.266-0.093,0.405c-0.065,0.262-0.126,0.523-0.189,0.785c-0.063,0.258-0.126,0.521-0.188,0.783
		c-0.045,0.255-0.101,0.502-0.169,0.742c-0.067,0.24-0.123,0.485-0.167,0.742c0.015-0.026,0.015-0.08-0.007-0.167
		c-0.009-0.193-0.022-0.391-0.041-0.582c-0.022-0.195-0.035-0.4-0.05-0.618c-0.009-0.201-0.035-0.398-0.078-0.597
		c-0.042-0.201-0.082-0.417-0.123-0.649c-0.028-0.106-0.05-0.216-0.073-0.329c-0.021-0.121-0.041-0.227-0.07-0.331
		c-0.034-0.123-0.067-0.25-0.099-0.372c-0.032-0.125-0.078-0.246-0.134-0.367c-0.052-0.115-0.108-0.247-0.169-0.383
		c-0.058-0.141-0.13-0.29-0.218-0.442c-0.195-0.303-0.448-0.612-0.779-0.921c-0.112-0.082-0.22-0.154-0.324-0.216
		c-0.104-0.058-0.222-0.128-0.354-0.203c-0.283-0.146-0.569-0.225-0.861-0.238c-0.277-0.034-0.556-0.039-0.833-0.007l-0.184,0.05
		l-0.097,0.026l-0.093,0.024l-0.033,0.01l-0.03,0.007l-0.091,0.026l-0.154,0.041c-0.181,0.069-0.376,0.177-0.581,0.32
		c-0.189,0.119-0.334,0.236-0.439,0.352c-0.115,0.144-0.223,0.27-0.312,0.385c-0.091,0.111-0.177,0.236-0.251,0.365
		c-0.03,0.052-0.062,0.111-0.085,0.171c-0.028,0.067-0.058,0.134-0.078,0.207c-0.047,0.08-0.095,0.19-0.146,0.337l-0.292,0.646
		l-0.121,0.299c-0.03,0.048-0.05,0.102-0.056,0.145c-0.013,0.048-0.031,0.099-0.065,0.152c-0.015,0.093-0.046,0.188-0.087,0.291
		c-0.039,0.097-0.069,0.195-0.085,0.29c-0.134,0.409-0.242,0.796-0.326,1.15c-0.06,0.193-0.106,0.385-0.147,0.573
		c-0.039,0.186-0.074,0.376-0.113,0.562c-0.073,0.398-0.134,0.773-0.195,1.133c-0.06,0.359-0.117,0.735-0.164,1.125
		c-0.041,0.188-0.067,0.374-0.087,0.554c-0.015,0.184-0.037,0.365-0.052,0.547c-0.062,0.348-0.104,0.716-0.136,1.1l-0.584-7.261
		c-0.037-0.391-0.203-0.72-0.497-0.997c-0.298-0.275-0.636-0.418-1.016-0.428c-0.439,0.005-0.809,0.158-1.109,0.446
		c-0.299,0.292-0.448,0.647-0.446,1.068l-0.063,8.641c-0.083,0.119-0.162,0.24-0.238,0.359c-0.086,0.134-0.177,0.268-0.273,0.401
		c-0.201,0.255-0.408,0.499-0.622,0.735c-0.216,0.234-0.439,0.448-0.673,0.647c-0.128,0.099-0.253,0.195-0.372,0.281
		c-0.123,0.087-0.238,0.169-0.354,0.244c-0.091,0.069-0.188,0.125-0.29,0.162c-0.097,0.037-0.197,0.08-0.294,0.128
		c0.005-0.136,0.021-0.266,0.041-0.396c0.021-0.125,0.035-0.256,0.046-0.393c0.054-0.366,0.093-0.729,0.11-1.079
		c0.019-0.348,0.028-0.711,0.043-1.092c0.011-0.69-0.017-1.414-0.086-2.172c-0.033-0.369-0.082-0.739-0.149-1.107
		c-0.067-0.37-0.16-0.74-0.277-1.107c-0.058-0.205-0.121-0.4-0.192-0.582c-0.07-0.177-0.152-0.369-0.249-0.564
		c-0.099-0.193-0.208-0.389-0.338-0.575c-0.128-0.186-0.283-0.37-0.46-0.543c-0.18-0.173-0.383-0.341-0.601-0.502
		c-0.262-0.151-0.528-0.27-0.794-0.354c-0.24-0.069-0.522-0.117-0.837-0.141c-0.156-0.002-0.296,0.009-0.422,0.028
		c-0.13,0.024-0.259,0.041-0.385,0.056c-0.418,0.112-0.779,0.24-1.094,0.391c-0.322-0.29-0.701-0.487-1.14-0.591
		c-0.439-0.104-0.884-0.084-1.332,0.059l-0.034,0.008l-0.059,0.017c-0.041,0.011-0.065,0.021-0.073,0.035
		c-0.009,0.015-0.021,0.022-0.043,0.026l-0.249,0.067l-0.439,0.219c-0.134,0.082-0.266,0.153-0.391,0.222
		c-0.126,0.063-0.246,0.145-0.352,0.242c-0.467,0.326-0.858,0.685-1.174,1.081c-0.335,0.402-0.61,0.785-0.826,1.154
		c-0.125,0.189-0.238,0.375-0.348,0.56c-0.106,0.183-0.195,0.374-0.277,0.571c-0.181,0.405-0.335,0.791-0.471,1.157
		c-0.136,0.37-0.249,0.757-0.338,1.157c-0.21,0.787-0.365,1.55-0.454,2.281c-0.102,0.783-0.166,1.544-0.188,2.283
		c-0.009,0.379-0.003,0.761,0.008,1.144c0.001,0.063,0.009,0.125,0.013,0.189c-0.013,0.11-0.041,0.203-0.085,0.279
		c-0.009,0.048-0.041,0.141-0.095,0.275c-0.052,0.136-0.108,0.273-0.171,0.413c-0.061,0.14-0.123,0.272-0.175,0.396
		c-0.06,0.125-0.089,0.212-0.101,0.258c-0.058,0.193-0.132,0.387-0.225,0.577c-0.091,0.192-0.189,0.387-0.292,0.594
		c-0.361,0.718-0.813,1.429-1.36,2.126c-0.534,0.653-1.112,1.259-1.743,1.816c-0.627,0.556-1.302,1.053-2.026,1.494
		c-0.728,0.441-1.472,0.804-2.238,1.096c-0.4,0.15-0.798,0.285-1.189,0.402c-0.391,0.115-0.798,0.21-1.222,0.279
		c-0.104,0.03-0.201,0.056-0.294,0.08c-0.093,0.024-0.195,0.039-0.301,0.046l-0.158,0.041l-0.164,0.009
		c-0.041,0.011-0.087,0.021-0.145,0.024c-0.052,0.001-0.103,0.011-0.142,0.02c-0.195,0.01-0.396,0.022-0.589,0.041
		c-0.192,0.021-0.38,0.032-0.557,0.036c-0.203-0.019-0.396-0.028-0.577-0.047c-0.184-0.017-0.368-0.042-0.556-0.083
		c-0.18-0.019-0.355-0.052-0.521-0.091c-0.169-0.044-0.342-0.099-0.514-0.166c-0.666-0.264-1.25-0.606-1.739-1.029
		c-0.508-0.418-0.977-0.915-1.395-1.49c-0.208-0.279-0.404-0.567-0.584-0.878c-0.182-0.305-0.361-0.62-0.541-0.953
		c-0.326-0.64-0.61-1.332-0.85-2.063c-0.261-0.729-0.463-1.486-0.606-2.268c-0.08-0.379-0.155-0.763-0.229-1.155
		c-0.073-0.391-0.126-0.779-0.164-1.168c-0.045-0.411-0.082-0.809-0.121-1.2c-0.037-0.391-0.058-0.792-0.058-1.215
		c-0.009-0.199-0.011-0.396-0.011-0.597c0.002-0.201,0.011-0.402,0.022-0.603c-0.017-0.219-0.017-0.432-0.004-0.632
		c0.013-0.201,0.024-0.408,0.037-0.61c0.054-0.789,0.14-1.588,0.255-2.394c0.117-0.809,0.291-1.609,0.519-2.405
		c0.114-0.404,0.231-0.796,0.354-1.172c0.121-0.378,0.255-0.75,0.398-1.122c0.281-0.765,0.612-1.518,0.994-2.264
		c0.189-0.361,0.389-0.712,0.597-1.057c0.207-0.342,0.426-0.694,0.664-1.045c0.23-0.305,0.493-0.618,0.783-0.939
		c0.136-0.147,0.281-0.296,0.428-0.448c0.149-0.149,0.299-0.299,0.458-0.456c0.616-0.521,1.308-0.969,2.069-1.35
		c0.193-0.101,0.389-0.185,0.579-0.259c0.191-0.071,0.387-0.143,0.587-0.221c0.387-0.125,0.794-0.234,1.211-0.324
		c0.426-0.073,0.841-0.097,1.241-0.085c0.405,0.015,0.811,0.08,1.216,0.189c0.194,0.062,0.376,0.121,0.551,0.188
		c0.171,0.065,0.35,0.149,0.534,0.253c0.289,0.169,0.577,0.379,0.867,0.632c0.287,0.238,0.511,0.499,0.677,0.787
		c0.154,0.248,0.295,0.53,0.428,0.85c0.119,0.277,0.195,0.565,0.232,0.867c0.058,0.296,0.073,0.603,0.046,0.921
		c-0.072,0.64-0.253,1.254-0.538,1.84c-0.141,0.305-0.307,0.599-0.499,0.882c-0.188,0.285-0.404,0.558-0.642,0.822
		c-0.14,0.145-0.27,0.283-0.393,0.4c-0.123,0.125-0.257,0.251-0.396,0.377c-0.147,0.126-0.285,0.246-0.419,0.361
		c-0.136,0.114-0.279,0.236-0.42,0.361l-0.926,0.646c-0.091,0.071-0.177,0.128-0.255,0.173c-0.076,0.041-0.149,0.093-0.221,0.156
		l-0.264,0.138l-0.251,0.169l-0.031,0.006c-0.452,0.297-0.753,0.714-0.9,1.241c-0.149,0.526-0.078,1.03,0.207,1.509
		c0.264,0.504,0.671,0.833,1.214,0.988c0.538,0.154,1.061,0.099,1.566-0.169l0.138-0.106l0.173-0.078
		c0.062-0.039,0.114-0.069,0.164-0.095c0.046-0.022,0.099-0.054,0.158-0.091c0.093-0.067,0.194-0.138,0.311-0.199
		c0.117-0.067,0.221-0.134,0.314-0.199c0.197-0.167,0.396-0.322,0.591-0.461c0.193-0.14,0.391-0.292,0.592-0.458
		c0.8-0.656,1.503-1.388,2.107-2.197c0.307-0.411,0.597-0.857,0.857-1.326c0.263-0.469,0.484-0.949,0.663-1.44
		c0.184-0.473,0.314-1.006,0.4-1.607c0.104-0.515,0.136-1.077,0.083-1.68c-0.009-0.288-0.042-0.567-0.091-0.845
		c-0.058-0.273-0.117-0.554-0.195-0.844c-0.205-0.588-0.452-1.109-0.753-1.562c-0.167-0.222-0.346-0.434-0.538-0.638
		c-0.186-0.203-0.392-0.4-0.617-0.583c-0.454-0.368-0.921-0.653-1.397-0.857c-0.251-0.11-0.497-0.199-0.737-0.266
		c-0.24-0.072-0.487-0.126-0.744-0.167c-0.491-0.093-0.99-0.136-1.498-0.132c-0.246,0-0.48,0.011-0.703,0.039
		c-0.227,0.03-0.461,0.052-0.696,0.073c-0.242,0.017-0.476,0.054-0.707,0.104c-0.23,0.046-0.461,0.097-0.695,0.136
		c-0.439,0.097-0.875,0.214-1.3,0.35c-0.458,0.121-0.895,0.275-1.313,0.45c-0.422,0.156-0.839,0.344-1.25,0.553
		c-0.408,0.21-0.813,0.433-1.215,0.673c-0.212,0.123-0.413,0.244-0.603,0.363c-0.19,0.117-0.376,0.246-0.562,0.381
		c-0.201,0.164-0.385,0.316-0.562,0.452c-0.176,0.134-0.35,0.279-0.53,0.44c-0.363,0.296-0.713,0.612-1.044,0.943
		c-0.331,0.335-0.651,0.685-0.949,1.055c-0.297,0.368-0.587,0.751-0.855,1.144c-0.275,0.393-0.523,0.789-0.75,1.181
		c-0.456,0.787-0.858,1.648-1.204,2.586c-0.197,0.43-0.367,0.867-0.516,1.317c-0.143,0.45-0.277,0.902-0.402,1.356
		c-0.123,0.454-0.23,0.908-0.329,1.371c-0.101,0.459-0.186,0.919-0.262,1.384c-0.093,0.489-0.156,0.951-0.193,1.382
		c-0.071,0.483-0.108,0.958-0.117,1.428c-0.048,0.48-0.067,0.949-0.052,1.41c0.011,0.463,0.03,0.938,0.044,1.417
		C64.087,38.201,64.201,39.163,64.364,40.106z M141.436,18.339c0.012-0.046,0.016-0.099,0.022-0.152
		c0.008-0.06,0.016-0.112,0.022-0.158c0.053-0.147,0.097-0.246,0.123-0.298c0.13-0.434,0.376-0.71,0.74-0.833
		c0.06-0.035,0.13-0.067,0.212-0.087c0.041-0.009,0.074-0.015,0.101-0.009c0.019,0.006,0.041,0.006,0.06,0
		c0.067-0.017,0.127-0.002,0.179,0.052c0.052,0.007,0.126,0.044,0.238,0.102c0.126,0.077,0.282,0.246,0.461,0.508
		c0.171,0.221,0.302,0.461,0.395,0.725c0.119,0.279,0.224,0.567,0.312,0.865c0.097,0.299,0.171,0.604,0.23,0.919
		c0.045,0.322,0.082,0.642,0.131,0.963c0.037,0.322,0.059,0.638,0.052,0.951c0,0.331-0.004,0.661-0.019,0.986
		c-0.008,0.326-0.03,0.647-0.056,0.964c-0.019,0.184-0.041,0.361-0.075,0.536c-0.033,0.175-0.056,0.354-0.07,0.536
		c-0.097-0.019-0.156-0.035-0.183-0.05c-0.07-0.028-0.175-0.078-0.305-0.154c-0.111-0.08-0.212-0.15-0.309-0.214
		s-0.187-0.138-0.275-0.227c-0.395-0.383-0.707-0.775-0.949-1.177c-0.033-0.036-0.048-0.063-0.056-0.084
		c-0.007-0.021-0.025-0.048-0.06-0.083l-0.007-0.032l-0.008-0.034c-0.022,0.006-0.033,0-0.037-0.02l-0.022-0.095
		c-0.078-0.11-0.126-0.21-0.148-0.292c-0.074-0.115-0.127-0.227-0.156-0.338c-0.03-0.114-0.071-0.223-0.119-0.318
		c-0.037-0.128-0.071-0.242-0.112-0.352c-0.04-0.113-0.062-0.223-0.074-0.333c-0.022-0.104-0.052-0.221-0.074-0.346
		c-0.022-0.128-0.037-0.244-0.045-0.352c-0.037-0.234-0.066-0.461-0.081-0.677c-0.016-0.22-0.03-0.448-0.045-0.687
		C141.388,18.831,141.392,18.596,141.436,18.339z M136.793,23.741c0.134-0.587,0.312-1.168,0.535-1.737
		c0.016-0.028,0.022-0.052,0.03-0.074c0-0.024,0.015-0.048,0.029-0.076l0.101,0.374c0.123,0.477,0.279,0.902,0.473,1.269
		c0.193,0.392,0.424,0.773,0.703,1.142c0.071,0.095,0.146,0.184,0.224,0.273s0.152,0.18,0.223,0.271
		c0.026,0.017,0.049,0.034,0.063,0.052c0.019,0.019,0.037,0.033,0.067,0.046l0.007,0.034l0.008,0.031l0.029-0.009l0.057,0.087
		c0.115,0.101,0.197,0.166,0.249,0.197c0.654,0.601,1.384,1.094,2.195,1.477c0.2,0.078,0.405,0.149,0.621,0.214
		c0.22,0.062,0.442,0.119,0.681,0.166c0.111,0.015,0.208,0.03,0.294,0.056c0.086,0.019,0.183,0.041,0.298,0.052
		c0.004,0.021-0.004,0.034-0.019,0.041c-0.123,0.298-0.261,0.581-0.409,0.839c-0.075,0.134-0.156,0.262-0.246,0.396
		c-0.082,0.134-0.179,0.273-0.275,0.409c-0.356,0.473-0.759,0.915-1.205,1.323c-0.432,0.379-0.9,0.669-1.399,0.872
		c-0.06,0.015-0.118,0.036-0.178,0.065c-0.06,0.026-0.119,0.048-0.183,0.065l-0.376,0.099l-0.089,0.024l-0.094,0.026
		c-0.048-0.009-0.107-0.006-0.167,0.011c-0.104,0.026-0.22,0.037-0.357,0.03c-0.223-0.006-0.416-0.03-0.588-0.076
		c-0.089-0.021-0.171-0.05-0.237-0.088c-0.067-0.035-0.135-0.078-0.216-0.121c-0.06-0.054-0.112-0.11-0.179-0.169
		c-0.06-0.062-0.119-0.128-0.187-0.201c-0.142-0.205-0.253-0.4-0.319-0.579c-0.194-0.393-0.335-0.887-0.432-1.481
		c-0.06-0.299-0.097-0.586-0.119-0.869c-0.016-0.283-0.034-0.577-0.053-0.884C136.361,26.102,136.51,24.904,136.793,23.741z
		 M98.976,29.716c0.005-0.044,0.017-0.097,0.022-0.154c0.005-0.056,0.017-0.108,0.026-0.156c0.046-0.145,0.087-0.246,0.119-0.299
		c0.13-0.434,0.374-0.711,0.74-0.83c0.058-0.038,0.125-0.067,0.21-0.087c0.041-0.011,0.07-0.017,0.095-0.011
		c0.026,0.005,0.048,0.005,0.069,0c0.062-0.017,0.121,0,0.179,0.052c0.046,0.008,0.123,0.045,0.229,0.104
		c0.132,0.074,0.287,0.246,0.469,0.506c0.169,0.22,0.302,0.463,0.395,0.728c0.117,0.279,0.223,0.563,0.316,0.863
		c0.089,0.3,0.166,0.603,0.227,0.919c0.043,0.324,0.086,0.644,0.125,0.966c0.044,0.322,0.06,0.64,0.06,0.947
		c-0.002,0.333-0.009,0.664-0.024,0.988c-0.009,0.324-0.03,0.647-0.056,0.962c-0.017,0.186-0.041,0.362-0.073,0.536
		c-0.03,0.178-0.056,0.355-0.072,0.538c-0.093-0.021-0.155-0.036-0.183-0.052c-0.071-0.026-0.173-0.076-0.301-0.151
		c-0.113-0.082-0.216-0.152-0.311-0.217c-0.091-0.06-0.188-0.138-0.277-0.223c-0.389-0.383-0.707-0.778-0.947-1.178
		c-0.032-0.035-0.05-0.065-0.056-0.087c-0.006-0.019-0.024-0.044-0.056-0.082l-0.009-0.03l-0.007-0.035
		c-0.021,0.005-0.033,0-0.039-0.022l-0.024-0.091c-0.078-0.112-0.125-0.21-0.144-0.294c-0.08-0.114-0.132-0.229-0.162-0.339
		c-0.03-0.115-0.069-0.223-0.117-0.316c-0.032-0.128-0.069-0.246-0.112-0.354c-0.041-0.114-0.063-0.223-0.069-0.331
		c-0.03-0.104-0.058-0.222-0.08-0.348c-0.022-0.128-0.035-0.244-0.042-0.352c-0.041-0.234-0.071-0.459-0.082-0.675
		c-0.015-0.221-0.032-0.452-0.05-0.688C98.928,30.209,98.932,29.975,98.976,29.716z M94.331,35.121
		c0.132-0.59,0.311-1.168,0.534-1.738c0.017-0.029,0.028-0.052,0.03-0.076c0.004-0.022,0.015-0.05,0.03-0.076l0.099,0.376
		c0.128,0.474,0.289,0.898,0.477,1.269c0.191,0.391,0.426,0.77,0.703,1.14c0.069,0.095,0.143,0.186,0.225,0.273
		c0.076,0.091,0.15,0.181,0.223,0.273c0.022,0.015,0.044,0.034,0.06,0.05c0.017,0.019,0.037,0.034,0.063,0.048l0.011,0.032
		l0.007,0.034l0.032-0.009l0.058,0.083c0.114,0.103,0.201,0.167,0.251,0.197c0.647,0.604,1.378,1.098,2.191,1.479
		c0.195,0.078,0.406,0.15,0.625,0.216c0.214,0.06,0.44,0.117,0.675,0.166c0.112,0.013,0.216,0.03,0.298,0.054
		c0.082,0.019,0.181,0.041,0.298,0.054c0.003,0.021-0.002,0.031-0.022,0.037c-0.123,0.299-0.257,0.58-0.409,0.839
		c-0.075,0.136-0.154,0.266-0.244,0.398c-0.084,0.134-0.177,0.272-0.273,0.41c-0.361,0.474-0.763,0.915-1.208,1.32
		c-0.432,0.383-0.896,0.674-1.399,0.873c-0.06,0.015-0.123,0.039-0.18,0.069c-0.06,0.026-0.119,0.045-0.181,0.063l-0.374,0.1
		l-0.093,0.022l-0.091,0.026c-0.05-0.007-0.102-0.005-0.164,0.01c-0.106,0.029-0.225,0.039-0.359,0.031
		c-0.224-0.005-0.419-0.031-0.584-0.078c-0.097-0.017-0.175-0.046-0.242-0.083c-0.065-0.039-0.138-0.082-0.218-0.125
		c-0.056-0.05-0.117-0.108-0.173-0.167c-0.067-0.062-0.126-0.128-0.19-0.201c-0.145-0.203-0.255-0.398-0.323-0.577
		c-0.194-0.396-0.335-0.887-0.428-1.482c-0.058-0.3-0.097-0.586-0.117-0.871c-0.021-0.279-0.035-0.575-0.054-0.884
		C93.899,37.479,94.046,36.283,94.331,35.121z"/>
	<path fill="#FFFFFF" d="M247.172,48.231c-0.029-0.404-0.074-0.811-0.152-1.228c-0.03-0.422-0.101-0.822-0.205-1.208
		c-0.104-0.385-0.208-0.777-0.312-1.181c-0.238-0.876-0.524-1.661-0.87-2.353c-0.316-0.743-0.737-1.449-1.272-2.126
		c-0.257-0.365-0.532-0.692-0.822-0.99c-0.294-0.283-0.596-0.571-0.904-0.843c-0.64-0.495-1.369-0.924-2.169-1.3
		c-0.413-0.205-0.811-0.35-1.209-0.441c-0.395-0.087-0.818-0.171-1.272-0.247c-0.845-0.084-1.667-0.082-2.463,0.015
		c-0.834,0.108-1.637,0.324-2.415,0.647c-0.383,0.184-0.751,0.359-1.094,0.526c-0.346,0.177-0.677,0.398-0.993,0.677
		c-1.417,1.004-2.489,2.217-3.207,3.625c-0.107,0.188-0.193,0.361-0.268,0.54c-0.067,0.181-0.149,0.379-0.253,0.601
		c-0.067,0.176-0.138,0.346-0.209,0.524c-0.07,0.177-0.134,0.37-0.193,0.584c-0.019,0.138-0.056,0.268-0.089,0.4
		c-0.09,0.112-0.179,0.225-0.265,0.335c-0.613,0.846-1.269,1.663-1.957,2.448c-0.691,0.785-1.402,1.542-2.132,2.254
		c-0.354,0.335-0.714,0.671-1.082,1.012c-0.368,0.34-0.756,0.666-1.157,0.971c-0.398,0.307-0.804,0.595-1.213,0.865
		c-0.405,0.271-0.818,0.522-1.239,0.755c-0.845,0.426-1.715,0.777-2.601,1.058c-0.395,0.185-0.804,0.296-1.231,0.331
		c-0.189,0.049-0.387,0.093-0.599,0.13c-0.212,0.036-0.409,0.078-0.6,0.126c-0.428,0.037-0.821,0.075-1.172,0.104
		c-0.354,0.037-0.691,0.037-1.022,0.005c-0.32,0.002-0.614-0.005-0.882-0.035c-0.269-0.028-0.514-0.089-0.74-0.192
		c-0.265-0.091-0.51-0.182-0.741-0.283c-0.227-0.099-0.469-0.255-0.722-0.469c-0.535-0.338-1.019-0.807-1.466-1.41
		c-0.238-0.297-0.476-0.627-0.714-0.982c-0.238-0.359-0.446-0.733-0.629-1.125c-0.187-0.391-0.364-0.792-0.536-1.209
		c-0.167-0.413-0.323-0.865-0.453-1.35l-0.238-0.899c0.045,0.028,0.078,0.062,0.085,0.099c0.012,0.036,0.041,0.069,0.09,0.097
		c0.253,0.208,0.506,0.406,0.755,0.579c0.246,0.173,0.495,0.348,0.74,0.525c0.187,0.108,0.35,0.184,0.484,0.23
		c0.186,0.11,0.327,0.171,0.409,0.19c0.145,0.082,0.29,0.15,0.45,0.21c0.152,0.06,0.316,0.104,0.487,0.142
		c0.613,0.193,1.287,0.316,2.023,0.359c0.201,0.026,0.38,0.037,0.518,0.041c0.145,0.004,0.309-0.004,0.506-0.017l1.061-0.101
		c1.298-0.229,2.567-0.666,3.795-1.319c0.603-0.281,1.157-0.612,1.659-0.984c0.204-0.138,0.339-0.234,0.401-0.292
		c0.037-0.009,0.075-0.035,0.097-0.083l0.156-0.104c0.131-0.111,0.213-0.175,0.25-0.186c0.316-0.325,0.588-0.638,0.825-0.943
		c0.54-0.543,0.972-1.183,1.291-1.911c0.388-0.664,0.674-1.321,0.86-1.974c0.26-0.671,0.449-1.341,0.568-2.015
		c0.127-0.673,0.209-1.36,0.265-2.056c-0.008-0.32-0.008-0.651,0.004-0.993c0.007-0.34,0.003-0.692-0.016-1.049
		c-0.06-0.705-0.193-1.412-0.383-2.121c-0.189-0.712-0.446-1.443-0.771-2.201c-0.342-0.669-0.8-1.347-1.391-2.033
		c-0.641-0.75-1.351-1.321-2.136-1.713c-0.759-0.437-1.622-0.727-2.582-0.873c-0.462-0.076-0.896-0.098-1.31-0.067
		c-0.413,0.03-0.812,0.077-1.198,0.14c-0.395,0.026-0.767,0.097-1.112,0.208c-0.354,0.115-0.685,0.253-1.001,0.418
		c-0.32,0.162-0.625,0.329-0.923,0.489s-0.588,0.314-0.866,0.471c-0.604,0.443-1.12,0.839-1.544,1.196
		c-0.491,0.413-0.945,0.847-1.362,1.297c-0.424,0.456-0.826,0.936-1.213,1.44c-0.175,0.244-0.35,0.481-0.532,0.712
		c-0.179,0.227-0.354,0.463-0.531,0.712c-0.135,0.238-0.283,0.489-0.458,0.753c-0.167,0.266-0.316,0.536-0.439,0.813
		c-0.305,0.522-0.565,1.043-0.784,1.559c-0.224,0.523-0.443,1.053-0.659,1.591c-0.22,0.54-0.413,1.084-0.584,1.629
		c-0.175,0.551-0.323,1.118-0.442,1.715c-0.588,2.21-0.875,4.453-0.904,6.732l0,0l-0.253,0.612
		c-0.104,0.229-0.201,0.433-0.283,0.617c-0.097,0.185-0.208,0.398-0.346,0.635c-0.208,0.417-0.473,0.977-0.781,1.683
		c-0.316,0.704-0.58,1.247-0.796,1.626c-0.428,0.794-0.871,1.583-1.321,2.37c-0.45,0.779-0.926,1.518-1.425,2.213
		c-0.22,0.38-0.458,0.746-0.726,1.094c-0.268,0.353-0.535,0.688-0.814,1c-0.119,0.154-0.238,0.305-0.357,0.459
		c-0.119,0.151-0.261,0.307-0.417,0.471c-0.237,0.305-0.513,0.558-0.818,0.761c-0.22,0.222-0.454,0.404-0.695,0.547
		c-0.03-0.115-0.037-0.288-0.022-0.536c-0.004-0.162-0.008-0.327-0.015-0.508c-0.008-0.175-0.019-0.363-0.034-0.562
		c0.026-0.207,0.041-0.411,0.049-0.614c0.008-0.203,0.022-0.407,0.045-0.612c0.044-0.415,0.089-0.828,0.119-1.235
		c0.029-0.411,0.085-0.843,0.163-1.308l0.376-2.626c0.13-0.876,0.261-1.764,0.405-2.662c0.134-0.898,0.279-1.829,0.421-2.791
		c0.078-0.461,0.145-0.93,0.197-1.404c0.052-0.475,0.111-0.945,0.193-1.406c0.066-0.499,0.115-0.992,0.145-1.481
		c0.03-0.487,0.056-0.999,0.071-1.525c0.015-0.244,0.025-0.495,0.037-0.759c0.011-0.266,0.019-0.536,0.022-0.819
		c0-0.283-0.012-0.558-0.041-0.83c-0.034-0.271-0.053-0.565-0.06-0.887c-0.041-0.309-0.101-0.625-0.164-0.947
		c-0.066-0.324-0.152-0.673-0.249-1.045c-0.052-0.188-0.104-0.387-0.156-0.592c-0.056-0.205-0.134-0.417-0.23-0.627
		c-0.216-0.506-0.483-0.975-0.8-1.412c-0.078-0.14-0.175-0.273-0.287-0.404c-0.119-0.13-0.23-0.259-0.346-0.389
		c-0.193-0.27-0.487-0.551-0.89-0.845c-0.305-0.238-0.688-0.476-1.153-0.714c-0.368-0.179-0.788-0.329-1.261-0.443
		c-0.208-0.022-0.413-0.05-0.621-0.074c-0.209-0.024-0.409-0.03-0.603-0.019c-0.209-0.024-0.402-0.022-0.573,0.003
		c-0.171,0.026-0.357,0.049-0.555,0.058c-0.197,0.013-0.487,0.07-0.859,0.169l-0.052,0.015l-0.06,0.015l-0.053,0.017l-0.097,0.086
		l-0.282,0.076c-0.402,0.149-0.767,0.305-1.079,0.469c-0.316,0.167-0.633,0.327-0.952,0.493c-0.61,0.407-1.153,0.854-1.622,1.339
		c-0.484,0.452-0.908,0.924-1.272,1.425c-0.368,0.497-0.685,1.001-0.945,1.514c-0.558,1.071-1.005,2.093-1.347,3.064
		c-0.187,0.495-0.35,0.986-0.473,1.482c-0.13,0.497-0.271,0.984-0.42,1.468l-0.402,1.427c-0.097,0.227-0.179,0.461-0.23,0.696
		c-0.06,0.236-0.119,0.463-0.183,0.679c-0.264,0.952-0.495,1.888-0.688,2.801c-0.2,0.915-0.394,1.838-0.58,2.772
		c-0.015,0.246-0.052,0.483-0.111,0.72c-0.053,0.236-0.097,0.458-0.123,0.664c-0.115,0.475-0.183,0.953-0.212,1.442l-0.156,1.002
		c-0.037-1.194-0.097-2.379-0.171-3.562c-0.075-1.181-0.135-2.372-0.172-3.562l0.022-0.367l0.078-0.385l0.019-0.363l0.067-0.438
		c0.026-0.489,0.104-1.014,0.238-1.57c0.097-0.545,0.193-1.083,0.29-1.611c0.101-0.526,0.201-1.045,0.305-1.555
		c0.134-0.556,0.257-1.1,0.376-1.633c0.115-0.532,0.249-1.057,0.391-1.576c0.127-0.556,0.253-1.102,0.372-1.633
		c0.119-0.534,0.246-1.059,0.391-1.58c0.078-0.303,0.152-0.582,0.224-0.844c0.07-0.257,0.134-0.516,0.182-0.769
		c0.082-0.303,0.149-0.578,0.201-0.835c0.052-0.253,0.119-0.532,0.197-0.835c0.041-0.132,0.078-0.27,0.101-0.417
		c0.015-0.147,0.052-0.285,0.097-0.415c0.008-0.125,0.029-0.271,0.063-0.441l0.052-0.253l0.011-0.184
		c0.041-0.29,0.086-0.565,0.142-0.82c0.053-0.253,0.097-0.526,0.142-0.817c0.142-1.122,0.275-2.232,0.401-3.328
		c0.127-1.096,0.242-2.197,0.343-3.31c0.119-2.113,0.186-4.338,0.201-6.667l-0.053-0.407v-0.24l0.008-0.182l-0.056-0.889
		c-0.045-0.309-0.078-0.597-0.115-0.871c-0.03-0.272-0.067-0.562-0.112-0.871l-0.282-1.729c-0.037-0.146-0.082-0.299-0.119-0.448
		c-0.041-0.15-0.101-0.294-0.175-0.435c-0.049-0.188-0.108-0.35-0.168-0.499c-0.059-0.144-0.134-0.305-0.215-0.48
		c-0.179-0.355-0.402-0.677-0.682-0.964c-0.104-0.091-0.204-0.173-0.305-0.247c-0.101-0.073-0.205-0.156-0.309-0.246
		c-0.228-0.103-0.499-0.21-0.808-0.328c-0.294-0.042-0.562-0.069-0.808-0.083c-0.074,0.019-0.141,0.026-0.2,0.022
		c-0.063-0.002-0.131,0.003-0.209,0.026l-0.111,0.03l-0.052,0.015l-0.187-0.009c-0.446,0.119-0.841,0.285-1.19,0.495
		c-0.171,0.091-0.35,0.184-0.521,0.295c-0.172,0.103-0.343,0.218-0.507,0.342c-0.26,0.235-0.528,0.504-0.807,0.819
		c-0.25,0.268-0.465,0.536-0.651,0.807c-0.193,0.271-0.387,0.553-0.588,0.847c-0.171,0.251-0.327,0.511-0.454,0.785
		c-0.082,0.142-0.16,0.285-0.245,0.426c-0.082,0.141-0.142,0.297-0.171,0.467c-0.127,0.275-0.257,0.551-0.384,0.824
		c-0.13,0.273-0.249,0.569-0.368,0.88c-0.395,1.069-0.714,2.197-0.956,3.386c-0.078,0.301-0.142,0.586-0.189,0.857
		c-0.045,0.277-0.09,0.56-0.135,0.854c-0.029,0.327-0.062,0.617-0.097,0.865c-0.033,0.25-0.066,0.538-0.097,0.867
		c-0.033,0.33-0.066,0.629-0.089,0.897c-0.03,0.271-0.067,0.55-0.104,0.843c-0.007,0.281-0.022,0.563-0.044,0.854
		c-0.022,0.285-0.038,0.571-0.045,0.85c-0.049,0.577-0.074,1.135-0.09,1.68c-0.015,0.545-0.044,1.105-0.089,1.676
		c-0.008,0.281-0.015,0.556-0.022,0.82c-0.015,0.264-0.022,0.536-0.022,0.817l-0.101,1.65c-0.048,2.217-0.062,4.418-0.037,6.595
		c0.022,2.178,0.053,4.384,0.09,6.621c0.025,2.197,0.093,4.375,0.189,6.537c0.089,1.981,0.205,3.987,0.342,6.009l-0.297,0.439
		c-0.149,0.201-0.275,0.387-0.395,0.558c-0.111,0.173-0.224,0.354-0.335,0.541c-0.148,0.203-0.275,0.408-0.38,0.612
		c-0.104,0.208-0.23,0.415-0.375,0.612c-0.146,0.199-0.339,0.5-0.569,0.906c-0.231,0.401-0.425,0.705-0.565,0.902
		c-0.499,0.698-1.027,1.38-1.589,2.052c-0.562,0.67-1.146,1.306-1.745,1.911c-0.275,0.311-0.565,0.623-0.863,0.923
		c-0.305,0.299-0.613,0.593-0.938,0.88c-0.156,0.164-0.305,0.314-0.446,0.452c-0.148,0.137-0.302,0.27-0.469,0.396
		c-0.164,0.126-0.335,0.251-0.499,0.372c-0.171,0.128-0.334,0.251-0.506,0.377c-0.666,0.5-1.335,0.949-2.013,1.349
		c-0.673,0.402-1.365,0.759-2.087,1.074c-0.179,0.087-0.343,0.148-0.491,0.191c-0.148,0.039-0.309,0.104-0.487,0.192l-1.067,0.284
		l-0.953,0.257l-0.111,0.03l-0.111,0.032l-0.06,0.015l-0.112,0.028l-0.052,0.015l-0.074-0.041l-0.446,0.119
		c-0.32,0.007-0.618,0.015-0.9,0.032c-0.275,0.013-0.536,0.013-0.777-0.002c-0.48,0.007-0.919-0.054-1.313-0.19
		c-0.395-0.134-0.812-0.324-1.235-0.571c-0.201-0.145-0.395-0.305-0.581-0.477c-0.186-0.169-0.394-0.383-0.621-0.644
		c-0.442-0.443-0.829-0.961-1.168-1.549c-0.339-0.594-0.658-1.23-0.964-1.911c-0.275-0.729-0.521-1.471-0.747-2.234
		c-0.228-0.759-0.384-1.531-0.473-2.312c-0.094-0.813-0.142-1.622-0.134-2.428c0-0.798,0.074-1.622,0.208-2.461
		c0.227-1.704,0.759-3.231,1.6-4.578c0.111-0.188,0.216-0.357,0.32-0.506c0.097-0.147,0.208-0.298,0.327-0.446
		c0.148-0.199,0.283-0.369,0.409-0.504c0.123-0.132,0.253-0.255,0.38-0.37c0.156-0.164,0.312-0.294,0.465-0.396
		c0.152-0.1,0.316-0.214,0.479-0.338c0.164-0.125,0.32-0.227,0.462-0.303c0.138-0.078,0.298-0.158,0.476-0.248
		c0.726-0.277,1.437-0.403,2.121-0.391l0.111-0.028l0.071,0.041l0.056-0.015l0.056-0.015c0.048,0.026,0.107,0.032,0.183,0.011
		c0.126,0.005,0.268,0.028,0.438,0.063c0.134,0.045,0.253,0.082,0.361,0.114c0.107,0.032,0.212,0.072,0.305,0.13
		c0.294,0.201,0.547,0.472,0.763,0.818c0.224,0.379,0.387,0.775,0.499,1.188c0.126,0.486,0.2,0.986,0.223,1.501
		c0.015,0.519-0.007,1.027-0.074,1.523c-0.078,0.461-0.208,0.878-0.387,1.246l-0.249,0.428c-0.034,0.007-0.078,0.065-0.138,0.156
		l-0.038,0.074l-0.04,0.069l-0.057,0.015c-0.691,0.705-1.09,1.553-1.183,2.543c-0.101,0.987,0.126,1.91,0.677,2.76
		c0.685,0.902,1.57,1.458,2.672,1.661c1.094,0.21,2.098-0.009,3.01-0.657l0.041-0.068l0.06-0.015l0.148-0.102
		c0.03-0.047,0.06-0.075,0.097-0.088c0.037-0.009,0.067-0.033,0.097-0.083c0.104-0.067,0.246-0.207,0.432-0.417
		c0.286-0.275,0.536-0.542,0.748-0.804c0.506-0.655,0.896-1.28,1.18-1.875c0.628-1.25,0.981-2.551,1.063-3.896
		c0.09-1.306,0.008-2.588-0.249-3.843c-0.168-0.632-0.376-1.243-0.606-1.821c-0.238-0.579-0.532-1.159-0.893-1.747
		c-0.156-0.279-0.335-0.549-0.544-0.815c-0.216-0.264-0.435-0.522-0.666-0.785c-0.275-0.286-0.547-0.534-0.8-0.748
		c-0.26-0.208-0.535-0.415-0.825-0.618c-0.335-0.191-0.666-0.372-0.99-0.547c-0.327-0.173-0.67-0.314-1.016-0.42
		c-0.167-0.034-0.339-0.078-0.518-0.13c-0.175-0.056-0.364-0.093-0.572-0.119c-0.171-0.033-0.335-0.05-0.491-0.048
		c-0.164,0.006-0.343-0.007-0.551-0.033c-0.357,0.019-0.699,0.039-1.034,0.067c-0.335,0.03-0.67,0.087-1.005,0.179
		c-0.159,0.003-0.312,0.033-0.457,0.093c-0.146,0.06-0.294,0.108-0.443,0.149c-0.074,0.021-0.145,0.048-0.216,0.089
		c-0.07,0.037-0.141,0.067-0.216,0.087l-0.06,0.015l-0.052,0.013l-0.056,0.015l-0.045,0.07l-0.056,0.015l-0.111,0.03
		c-1.023,0.517-1.942,1.124-2.761,1.823c-0.785,0.655-1.511,1.392-2.173,2.21c-0.368,0.417-0.685,0.804-0.952,1.153
		c-0.335,0.411-0.621,0.83-0.867,1.258c-0.294,0.4-0.555,0.809-0.777,1.231c-0.23,0.42-0.446,0.861-0.647,1.312
		c-0.193,0.458-0.387,0.908-0.565,1.358c-0.179,0.446-0.372,0.9-0.573,1.353c-0.588,1.843-1.032,3.767-1.337,5.774
		c-0.067,0.497-0.116,0.99-0.142,1.481c-0.015,0.234-0.024,0.487-0.037,0.731c-0.071,0.117-0.136,0.246-0.216,0.357
		c-0.172,0.25-0.339,0.491-0.491,0.735c-0.156,0.242-0.322,0.484-0.495,0.735c-0.359,0.456-0.733,0.896-1.12,1.319
		c-0.391,0.426-0.796,0.817-1.22,1.172c-0.233,0.183-0.458,0.354-0.677,0.51c-0.218,0.16-0.426,0.305-0.632,0.441
		c-0.167,0.125-0.343,0.223-0.523,0.29c-0.184,0.073-0.363,0.147-0.54,0.236c0.013-0.246,0.041-0.483,0.08-0.714
		c0.037-0.23,0.063-0.469,0.078-0.71c0.101-0.668,0.167-1.321,0.201-1.95c0.032-0.628,0.054-1.287,0.075-1.974
		c0.026-1.25-0.026-2.556-0.153-3.929c-0.058-0.664-0.148-1.335-0.268-2.003c-0.115-0.67-0.289-1.336-0.502-2
		c-0.102-0.375-0.218-0.724-0.344-1.051c-0.128-0.326-0.277-0.666-0.452-1.02c-0.179-0.354-0.38-0.701-0.612-1.04
		c-0.229-0.34-0.506-0.666-0.83-0.984c-0.326-0.311-0.69-0.614-1.09-0.908c-0.47-0.273-0.95-0.484-1.432-0.636
		c-0.434-0.125-0.938-0.21-1.512-0.259c-0.279-0.003-0.538,0.015-0.769,0.056c-0.23,0.041-0.459,0.074-0.694,0.097
		c-0.751,0.201-1.406,0.437-1.976,0.71c-0.581-0.528-1.269-0.883-2.059-1.071c-0.794-0.19-1.596-0.155-2.409,0.102l-0.056,0.017
		l-0.11,0.028c-0.078,0.022-0.123,0.042-0.134,0.069c-0.013,0.024-0.041,0.039-0.077,0.048l-0.45,0.121l-0.796,0.393
		c-0.242,0.145-0.478,0.279-0.705,0.4c-0.23,0.121-0.439,0.268-0.634,0.439c-0.845,0.588-1.553,1.241-2.121,1.954
		c-0.612,0.725-1.107,1.419-1.488,2.08c-0.229,0.344-0.441,0.685-0.632,1.012c-0.192,0.333-0.359,0.677-0.504,1.038
		c-0.325,0.728-0.61,1.427-0.85,2.095c-0.244,0.664-0.448,1.362-0.614,2.087c-0.381,1.425-0.653,2.801-0.818,4.128
		c-0.185,1.412-0.298,2.787-0.339,4.12c-0.015,0.606-0.007,1.22,0.011,1.834c-0.046,0.069-0.087,0.141-0.117,0.24l-0.056,0.015
		l-0.261,0.61l-0.312,0.625c-0.1,0.227-0.249,0.636-0.45,1.231c-0.203,0.594-0.355,0.99-0.467,1.176
		c-0.208,0.418-0.409,0.833-0.599,1.243c-0.189,0.413-0.396,0.811-0.614,1.188c-0.432,0.796-0.863,1.576-1.3,2.333
		c-0.439,0.761-0.902,1.503-1.384,2.236l-0.785,1.108c-0.119,0.156-0.236,0.32-0.352,0.488c-0.113,0.175-0.25,0.338-0.407,0.502
		c-0.4,0.305-0.759,0.603-1.085,0.893c-0.322,0.283-0.587,0.469-0.787,0.54c-0.199,0.074-0.346-0.019-0.434-0.279
		c-0.089-0.253-0.111-0.748-0.067-1.48c0.078-0.9,0.173-1.751,0.283-2.542l0.376-2.625c0.128-0.876,0.262-1.756,0.409-2.638
		c0.141-0.88,0.287-1.801,0.43-2.76c0.078-0.461,0.145-0.921,0.203-1.379c0.06-0.454,0.123-0.934,0.188-1.432
		c0.076-0.459,0.128-0.936,0.158-1.425c0.03-0.491,0.06-0.979,0.089-1.468c0.005-0.283,0.013-0.545,0.028-0.789
		c0.015-0.246,0.024-0.509,0.03-0.792c0.004-0.279-0.009-0.556-0.043-0.828c-0.03-0.273-0.048-0.549-0.039-0.83
		c-0.041-0.592-0.149-1.226-0.329-1.897c-0.017-0.359-0.117-0.731-0.301-1.125c-0.101-0.37-0.275-0.806-0.528-1.3
		c-0.147-0.236-0.294-0.489-0.443-0.751c-0.151-0.26-0.361-0.515-0.629-0.765c-0.123-0.166-0.253-0.314-0.387-0.437
		c-0.134-0.126-0.279-0.266-0.443-0.424c-0.189-0.111-0.37-0.221-0.54-0.335c-0.173-0.117-0.372-0.223-0.597-0.322
		c-0.504-0.225-0.926-0.372-1.263-0.444c-0.434-0.125-0.854-0.188-1.258-0.201c-0.195,0.013-0.385,0.022-0.563,0.03
		c-0.177,0.007-0.359,0.036-0.547,0.085c-0.121-0.007-0.277,0.013-0.465,0.063l-0.225,0.062l-0.109,0.028l-0.114,0.032l-0.167,0.044
		l-0.113,0.032l-0.279,0.076c-0.102,0.067-0.288,0.132-0.547,0.203c-0.178,0.091-0.344,0.175-0.502,0.257
		c-0.16,0.085-0.326,0.169-0.504,0.257c-0.316,0.164-0.618,0.355-0.898,0.571c-0.283,0.218-0.554,0.439-0.815,0.666
		c-0.593,0.48-1.043,0.964-1.352,1.447c-0.417,0.555-0.761,1.066-1.034,1.539c-0.134,0.242-0.268,0.495-0.395,0.768
		c-0.126,0.277-0.261,0.532-0.396,0.769c-0.089,0.264-0.178,0.53-0.266,0.792c-0.093,0.264-0.188,0.511-0.285,0.74
		c-0.183,0.528-0.333,1.04-0.461,1.535c-0.128,0.495-0.268,0.982-0.42,1.466l-0.342,1.412c-0.05,0.258-0.115,0.504-0.19,0.746
		c-0.078,0.242-0.128,0.463-0.154,0.669c-0.227,0.945-0.424,1.883-0.597,2.807c-0.171,0.932-0.338,1.856-0.489,2.779
		c-0.015,0.244-0.052,0.483-0.11,0.718c-0.054,0.236-0.091,0.475-0.106,0.724c-0.026,0.207-0.052,0.434-0.087,0.681
		c-0.035,0.251-0.062,0.48-0.085,0.687c-0.039,0.452-0.085,0.887-0.132,1.3c-0.052,0.413-0.102,0.826-0.148,1.241l-1.369-16.772
		c-0.067-0.703-0.367-1.295-0.895-1.775c-0.53-0.48-1.155-0.722-1.881-0.731c-0.761,0.006-1.412,0.271-1.951,0.796
		c-0.542,0.526-0.813,1.168-0.806,1.929l-0.109,15.47c-0.004,0.008-0.008,0.011-0.011,0.019l-0.054,0.015
		c-0.418,0.833-0.871,1.875-1.358,3.125c-0.487,1.258-0.938,2.3-1.356,3.133c-0.417,0.833-0.828,1.667-1.224,2.493
		c-0.4,0.825-0.833,1.645-1.298,2.455c-0.22,0.38-0.438,0.759-0.657,1.139c-0.218,0.379-0.439,0.759-0.657,1.139
		c-0.184,0.208-0.299,0.379-0.344,0.513c-0.184,0.209-0.309,0.343-0.375,0.395l-0.041,0.074l-0.056,0.016l0.017,0.056L58.976,97.2
		c-0.039,0.015-0.065,0.03-0.077,0.056c-0.015,0.026-0.041,0.041-0.078,0.049c-0.13,0.119-0.247,0.186-0.361,0.22
		c-0.13,0.115-0.264,0.189-0.393,0.219c-0.132,0.038-0.253,0.071-0.362,0.101c-0.069,0.063-0.128,0.086-0.194,0.082
		c-0.058-0.004-0.126,0.004-0.201,0.026c-0.151,0.037-0.246,0.044-0.298,0.015c-0.281,0-0.467-0.029-0.563-0.086
		c-0.181-0.07-0.344-0.167-0.497-0.286c-0.097-0.052-0.183-0.123-0.264-0.201c-0.08-0.078-0.169-0.145-0.268-0.2
		c-0.112-0.127-0.296-0.357-0.543-0.692c-0.117-0.13-0.208-0.261-0.283-0.376c-0.073-0.123-0.153-0.271-0.238-0.446
		c-0.089-0.179-0.171-0.339-0.25-0.477c-0.078-0.141-0.16-0.301-0.246-0.472c-0.176-0.357-0.323-0.723-0.44-1.087
		c-0.121-0.372-0.255-0.755-0.402-1.157c-0.112-0.413-0.229-0.811-0.352-1.197c-0.123-0.392-0.223-0.793-0.296-1.217
		c-0.108-0.409-0.21-0.822-0.299-1.243c-0.093-0.416-0.175-0.833-0.248-1.254c-0.022-0.234-0.065-0.457-0.117-0.662
		c-0.054-0.204-0.095-0.428-0.119-0.658c-0.011-0.197-0.046-0.409-0.108-0.633c-0.058-0.223-0.097-0.436-0.112-0.632
		c-0.033-0.432-0.093-0.879-0.175-1.338c-0.083-0.458-0.141-0.902-0.178-1.334c-0.013-0.195-0.039-0.409-0.08-0.64
		c-0.041-0.231-0.073-0.461-0.099-0.696c-0.011-0.195-0.028-0.413-0.05-0.647c-0.024-0.234-0.041-0.45-0.054-0.644
		c-0.082-0.902-0.171-1.801-0.271-2.697c-0.099-0.893-0.171-1.797-0.212-2.708c-0.045-0.912-0.104-1.814-0.186-2.716
		c-0.082-0.9-0.147-1.804-0.188-2.716c-0.184-3.68-0.24-7.251-0.164-10.719c0.039-0.893,0.08-1.776,0.128-2.652
		c0.044-0.875,0.119-1.723,0.218-2.556c0.087-0.865,0.205-1.708,0.346-2.524c0.144-0.82,0.326-1.62,0.556-2.409
		c0.065-0.216,0.119-0.409,0.175-0.584c0.052-0.175,0.112-0.368,0.171-0.59c0.074-0.176,0.145-0.357,0.219-0.538
		c0.071-0.176,0.144-0.361,0.212-0.539c0.195-0.332,0.381-0.644,0.563-0.932c0.183-0.292,0.381-0.562,0.595-0.82
		c0.504-0.499,0.99-0.787,1.449-0.871c0.225-0.06,0.493-0.03,0.802,0.089c0.134,0.042,0.251,0.109,0.355,0.201
		c0.05,0.03,0.087,0.06,0.117,0.089c0.028,0.032,0.067,0.065,0.113,0.093l0.03,0.112l0.073,0.041L55.85,43.8
		c0.143,0.242,0.376,0.361,0.696,0.354c0.45,0.039,0.687-0.203,0.705-0.731l-0.015-0.056l-0.015-0.054l-0.03-0.112l-0.06-0.227
		c0.017-0.084,0.007-0.164-0.032-0.229c-0.042-0.073-0.069-0.143-0.089-0.219c-0.087-0.177-0.166-0.326-0.238-0.449
		c-0.075-0.119-0.169-0.246-0.283-0.375c-0.385-0.538-0.945-0.908-1.68-1.111c-0.275-0.128-0.616-0.197-1.02-0.21
		c-0.169-0.034-0.33-0.039-0.486-0.017c-0.154,0.019-0.331,0.035-0.53,0.048c-0.606,0.125-1.213,0.327-1.819,0.608
		c-0.283,0.156-0.547,0.316-0.802,0.486c-0.255,0.169-0.5,0.346-0.731,0.526c-0.389,0.344-0.805,0.738-1.25,1.178
		c-0.379,0.381-0.724,0.814-1.034,1.298c-0.138,0.24-0.287,0.471-0.446,0.692c-0.16,0.223-0.309,0.454-0.447,0.69
		c-0.273,0.477-0.519,0.941-0.735,1.403c-0.217,0.456-0.422,0.932-0.612,1.425l-0.041,0.071c-0.022-0.234-0.063-0.465-0.123-0.688
		c-0.062-0.223-0.119-0.448-0.181-0.673c-0.11-0.249-0.214-0.491-0.314-0.727c-0.104-0.233-0.227-0.471-0.374-0.712
		c-0.348-0.547-0.72-0.969-1.12-1.263c-0.458-0.359-0.952-0.646-1.494-0.863c-0.273-0.126-0.536-0.216-0.792-0.27
		c-0.253-0.048-0.53-0.095-0.82-0.139c-0.575-0.046-1.081-0.071-1.525-0.073c-0.279-0.005-0.534,0.015-0.765,0.052
		c-0.229,0.044-0.48,0.082-0.748,0.113c-0.155,0.041-0.27,0.054-0.355,0.036L35.91,43.67c-0.113,0.03-0.227,0.052-0.344,0.063
		s-0.23,0.034-0.342,0.063c-0.448,0.119-0.898,0.238-1.349,0.359c-0.448,0.121-0.887,0.279-1.313,0.474
		c-1.823,0.687-3.512,1.563-5.075,2.621c-1.585,1.107-3.016,2.352-4.292,3.734c-1.319,1.356-2.463,2.848-3.432,4.466
		c-0.502,0.82-0.963,1.633-1.389,2.45c-0.422,0.815-0.813,1.67-1.176,2.569c-0.687,1.625-1.259,3.367-1.729,5.212
		c-0.123,0.437-0.238,0.869-0.344,1.298c-0.104,0.428-0.197,0.873-0.273,1.333c-0.078,0.461-0.158,0.916-0.238,1.358
		c-0.082,0.442-0.164,0.893-0.238,1.358c-0.063,0.214-0.113,0.439-0.15,0.669c-0.037,0.231-0.071,0.452-0.095,0.655
		c-0.028,0.212-0.045,0.437-0.058,0.679c-0.017,0.244-0.035,0.469-0.061,0.677c-0.075,0.465-0.126,0.916-0.144,1.364
		c-0.021,0.448-0.054,0.895-0.091,1.347c-0.041,0.45-0.058,0.908-0.056,1.366c0.006,0.463-0.015,0.921-0.052,1.369
		c-0.004,0.439-0.004,0.893,0,1.354c0.003,0.459,0.022,0.906,0.058,1.336c0.041,0.911,0.106,1.817,0.188,2.717
		c0.082,0.902,0.178,1.796,0.297,2.688c0.082,0.454,0.164,0.915,0.248,1.377c0.083,0.453,0.162,0.899,0.234,1.316
		c0.083,0.462,0.184,0.915,0.307,1.362c0.117,0.45,0.238,0.899,0.357,1.347c0.23,0.863,0.495,1.733,0.792,2.615
		c0.297,0.882,0.646,1.771,1.045,2.668c0.354,0.866,0.761,1.719,1.228,2.56c0.233,0.416,0.465,0.837,0.698,1.254
		c0.232,0.42,0.506,0.844,0.824,1.283c0.307,0.395,0.614,0.796,0.919,1.194c0.307,0.398,0.647,0.77,1.021,1.112
		c0.774,0.789,1.613,1.451,2.513,1.968c1.016,0.651,2.024,1.124,3.025,1.418c0.554,0.126,1.107,0.242,1.656,0.339
		c0.646,0.025,1.209,0.033,1.689,0.025c1.031-0.033,2.063-0.23,3.09-0.588c0.251-0.107,0.489-0.2,0.707-0.275
		c0.219-0.081,0.437-0.171,0.653-0.268c0.099-0.067,0.208-0.115,0.32-0.148c0.112-0.03,0.216-0.078,0.322-0.146
		c0.101-0.063,0.199-0.111,0.292-0.138c0.093-0.022,0.193-0.07,0.293-0.138c0.821-0.383,1.621-0.837,2.404-1.365
		c0.409-0.268,0.791-0.555,1.153-0.852c0.359-0.294,0.724-0.592,1.084-0.89c0.352-0.335,0.677-0.685,0.98-1.046
		c0.305-0.36,0.586-0.74,0.841-1.127c0.258-0.387,0.485-0.781,0.679-1.176c0.195-0.395,0.393-0.814,0.59-1.272
		c0.314-0.923,0.538-1.808,0.677-2.642c0.145-0.804,0.23-1.666,0.266-2.601c0.063-0.494,0.091-0.993,0.082-1.491
		c-0.015-0.499-0.044-0.982-0.087-1.451c0.074,0.142,0.158,0.379,0.248,0.714c0.336,0.953,0.712,1.913,1.136,2.88
		c0.214,0.506,0.443,0.989,0.685,1.443c0.244,0.454,0.528,0.923,0.856,1.392c0.357,0.588,0.683,1.064,0.98,1.421
		c0.184,0.234,0.366,0.469,0.549,0.7c0.182,0.23,0.401,0.453,0.658,0.662c0.393,0.416,0.888,0.848,1.486,1.287
		c0.59,0.401,1.215,0.714,1.875,0.938c0.769,0.316,1.513,0.477,2.236,0.483c0.733,0.045,1.473-0.033,2.223-0.234
		c0.185-0.048,0.355-0.093,0.504-0.13c0.149-0.045,0.312-0.108,0.491-0.193c0.177-0.09,0.336-0.164,0.48-0.22
		c0.145-0.06,0.283-0.146,0.413-0.261c0.663-0.379,1.193-0.784,1.6-1.209c0.091-0.107,0.191-0.223,0.297-0.35
		c0.104-0.13,0.224-0.253,0.352-0.368c0.054-0.093,0.106-0.168,0.151-0.22c0.046-0.052,0.097-0.126,0.151-0.223l0.1-0.086
		l0.024-0.123l0.058-0.015l0.039-0.074l0.043-0.074c0.082-0.142,0.156-0.279,0.217-0.417c0.063-0.138,0.14-0.257,0.233-0.364
		c0.109-0.19,0.21-0.417,0.299-0.682c0.225-0.502,0.42-0.971,0.582-1.417c0.162-0.446,0.341-0.894,0.54-1.347
		c0.314-0.931,0.608-1.854,0.882-2.761c0.277-0.923,0.536-1.831,0.774-2.738c0.039-0.134,0.08-0.29,0.119-0.439L66.35,96.01
		c-0.015,0.082-0.006,0.205,0.035,0.35c0.102,1.139,0.575,2.072,1.412,2.812c0.841,0.737,1.827,1.05,2.961,0.949
		c1.136-0.104,2.059-0.584,2.773-1.433c0.714-0.855,1.018-1.846,0.915-2.983l-0.037-0.588c-0.009-0.041,0.002-0.063,0.037-0.074
		c0.026-0.209,0.039-0.432,0.034-0.67c-0.004-0.238,0.005-0.462,0.032-0.67c0.022-0.208,0.042-0.432,0.061-0.677
		c0.01-0.246,0.03-0.469,0.056-0.678c0.078-0.461,0.138-0.907,0.182-1.343c0.043-0.432,0.104-0.882,0.181-1.34
		c0.128-0.874,0.281-1.76,0.463-2.652c0.185-0.889,0.376-1.778,0.577-2.679c0.075-0.461,0.179-0.898,0.309-1.315
		c0.128-0.413,0.236-0.835,0.324-1.26c0.061-0.216,0.123-0.431,0.184-0.649c0.063-0.22,0.126-0.436,0.188-0.653
		c0.188-0.491,0.329-0.93,0.428-1.317c0.296-0.841,0.606-1.676,0.926-2.502c0.318-0.826,0.653-1.627,1.006-2.407
		c0.11-0.188,0.208-0.377,0.301-0.56c0.091-0.186,0.19-0.372,0.3-0.562c0.11-0.19,0.219-0.383,0.327-0.569
		c0.112-0.191,0.227-0.361,0.346-0.513c0.218-0.38,0.465-0.729,0.742-1.04c0.273-0.316,0.558-0.612,0.845-0.891
		c0.167-0.123,0.314-0.251,0.437-0.383c0.125-0.134,0.271-0.264,0.437-0.393c0.093-0.102,0.242-0.221,0.447-0.357
		c0.037-0.009,0.061-0.028,0.074-0.05c0.013-0.026,0.058-0.046,0.134-0.065c0.006,0.318,0.015,0.575,0.026,0.772
		c0.026,0.396,0.044,0.802,0.058,1.22c0.011,0.417,0.015,0.846,0.013,1.287c-0.001,0.443,0.006,0.884,0.021,1.317
		c0.021,0.437,0.026,0.876,0.026,1.317c0.005,0.923,0.001,1.842-0.011,2.77c-0.015,0.924-0.015,1.849-0.009,2.768l0.046,2.874
		c0.009,0.478,0.026,0.955,0.052,1.428c0.03,0.477,0.074,0.982,0.139,1.525c0.022,0.234,0.047,0.477,0.077,0.737
		c0.028,0.253,0.058,0.513,0.091,0.788c0.034,0.269,0.084,0.536,0.154,0.797c0.073,0.26,0.127,0.547,0.169,0.855
		c0.08,0.298,0.158,0.595,0.24,0.896c0.082,0.302,0.207,0.629,0.381,0.982c0.087,0.175,0.173,0.346,0.256,0.502
		c0.082,0.156,0.194,0.343,0.326,0.543c0.214,0.343,0.532,0.719,0.964,1.124c0.104,0.093,0.221,0.193,0.35,0.301
		c0.126,0.104,0.258,0.179,0.391,0.224c0.381,0.22,0.658,0.368,0.841,0.439c0.167,0.033,0.325,0.06,0.473,0.078
		c0.145,0.022,0.303,0.052,0.472,0.089c0.134,0.041,0.266,0.06,0.406,0.041c0.134-0.019,0.26-0.022,0.383-0.015
		c0.162-0.004,0.302-0.012,0.417-0.019c0.117-0.012,0.232-0.037,0.346-0.063l0.614-0.167c0.188-0.049,0.368-0.119,0.547-0.205
		s0.355-0.175,0.532-0.265c0.316-0.163,0.605-0.35,0.871-0.565c0.264-0.208,0.51-0.401,0.742-0.588
		c0.224-0.219,0.43-0.432,0.612-0.64c0.182-0.216,0.361-0.442,0.54-0.691c0.63-0.771,1.198-1.642,1.7-2.62
		c0.236-0.465,0.448-0.907,0.634-1.339c0.181-0.432,0.376-0.874,0.575-1.332c0.099-0.224,0.188-0.446,0.27-0.674
		c0.082-0.219,0.171-0.444,0.271-0.671c0.099-0.226,0.18-0.45,0.242-0.668c0.063-0.216,0.143-0.436,0.244-0.666
		c0.16-0.443,0.303-0.882,0.426-1.315c0.125-0.433,0.262-0.895,0.415-1.376c0.115-0.469,0.234-0.922,0.357-1.356
		c0.125-0.434,0.227-0.882,0.303-1.343c0.003-0.078,0.046-0.221,0.078-0.348c0.134,0.763,0.295,1.527,0.502,2.293
		c0.138,0.365,0.255,0.726,0.352,1.079c0.095,0.357,0.231,0.71,0.402,1.064c0.335,0.794,0.705,1.498,1.109,2.112
		c0.223,0.379,0.456,0.727,0.703,1.043c0.242,0.316,0.532,0.647,0.867,0.997c0.622,0.678,1.351,1.229,2.184,1.645
		c0.417,0.209,0.845,0.391,1.291,0.555c0.445,0.16,0.896,0.279,1.358,0.36c0.914,0.116,1.797,0.119,2.653,0.008
		c0.232-0.022,0.45-0.06,0.657-0.111c0.208-0.06,0.407-0.097,0.603-0.104c0.227-0.06,0.409-0.134,0.549-0.208l0.058-0.015
		l0.054-0.016l0.171-0.044l0.275-0.075c0.179-0.089,0.357-0.167,0.542-0.238c0.18-0.066,0.359-0.148,0.538-0.23
		c0.178-0.089,0.348-0.163,0.511-0.23c0.164-0.06,0.33-0.156,0.495-0.279c0.42-0.234,0.738-0.457,0.961-0.681
		c0.166-0.126,0.316-0.234,0.452-0.331c0.132-0.093,0.285-0.204,0.452-0.331c0.287-0.275,0.556-0.551,0.804-0.818
		c0.246-0.268,0.497-0.534,0.746-0.798c0.452-0.564,0.869-1.135,1.256-1.719c0.385-0.584,0.729-1.196,1.04-1.843
		c0.571-1.157,1.06-2.391,1.473-3.704l0.478-1.57l0.283-0.074c0.822-0.224,1.542-0.536,2.152-0.939
		c0.636-0.33,1.237-0.774,1.812-1.329c0.285-0.277,0.543-0.547,0.774-0.807c0.23-0.264,0.45-0.524,0.664-0.779
		c0.452-0.562,0.849-1.129,1.198-1.704c0.095-0.158,0.171-0.328,0.263-0.489c0.104,0.904,0.292,1.812,0.606,2.722
		c0.179,0.511,0.379,1.04,0.603,1.583c0.227,0.542,0.498,1.047,0.826,1.52c0.342,0.512,0.699,1.018,1.071,1.518
		s0.818,0.964,1.332,1.388c0.967,0.902,2.091,1.604,3.389,2.101c0.674,0.26,1.321,0.446,1.954,0.556
		c0.755,0.119,1.413,0.184,1.979,0.193c0.647,0.026,1.28-0.013,1.891-0.117s1.197-0.231,1.764-0.381l0.841-0.227l0.097-0.085
		l0.052-0.015l0.06-0.015l0.06-0.015l0.111-0.031l0.224-0.06c0.029-0.047,0.097-0.086,0.208-0.117
		c0.253-0.104,0.506-0.212,0.752-0.32c0.253-0.109,0.502-0.236,0.744-0.379c0.237-0.147,0.476-0.287,0.699-0.428
		c0.223-0.14,0.454-0.285,0.695-0.426c0.242-0.146,0.473-0.297,0.688-0.456c0.22-0.162,0.424-0.326,0.618-0.497
		c0.438-0.318,0.84-0.647,1.213-0.986c0.368-0.339,0.722-0.696,1.063-1.068c0.187-0.21,0.364-0.398,0.543-0.565
		c0.172-0.169,0.335-0.35,0.484-0.551c0.089-0.106,0.171-0.207,0.245-0.307c0.074-0.1,0.156-0.203,0.249-0.307
		c0.056-0.097,0.131-0.188,0.228-0.271c0.097-0.087,0.175-0.177,0.23-0.272c0.142-0.197,0.298-0.391,0.446-0.569
		c0.152-0.183,0.302-0.372,0.45-0.573c0.146-0.199,0.286-0.394,0.413-0.593c0.126-0.192,0.261-0.389,0.409-0.592
		c0.298-0.396,0.569-0.803,0.822-1.209c0.249-0.409,0.502-0.806,0.759-1.196c0.979-1.586,1.842-3.24,2.578-4.963
		c0.104-0.227,0.246-0.586,0.436-1.077c0.056-0.145,0.101-0.253,0.146-0.376l0.044,0.867c0.037,0.27,0.067,0.536,0.09,0.789
		c0.029,0.251,0.044,0.521,0.037,0.8l0.142,1.646l0.193,1.629c0.007,0.322,0.029,0.603,0.082,0.852
		c0.044,0.25,0.074,0.532,0.074,0.852l0.101,0.817l0.062,0.465c0.053,0.186,0.075,0.338,0.067,0.463
		c0.156,0.878,0.569,1.611,1.246,2.188c0.674,0.581,1.47,0.85,2.381,0.807c0.994-0.026,1.827-0.4,2.497-1.12s0.989-1.578,0.96-2.575
		l-0.03-0.111l-0.022-2.34l-0.029-0.11l0.189-1.315c0.078-0.461,0.152-0.914,0.234-1.354s0.164-0.896,0.238-1.358
		c0.156-0.923,0.335-1.825,0.543-2.697c0.201-0.878,0.432-1.75,0.685-2.619c0.06-0.216,0.119-0.436,0.183-0.655
		c0.063-0.214,0.123-0.43,0.189-0.649l0.183-0.649l0.189-0.653c0.097-0.385,0.234-0.828,0.425-1.317
		c0.062-0.218,0.126-0.428,0.193-0.623c0.066-0.199,0.148-0.413,0.253-0.64c0.617-1.728,1.324-3.361,2.113-4.896
		c0.104-0.227,0.193-0.432,0.282-0.618c0.097-0.184,0.193-0.372,0.306-0.562c0.107-0.188,0.223-0.37,0.335-0.539
		c0.115-0.171,0.223-0.352,0.334-0.542c0.261-0.389,0.525-0.742,0.804-1.057c0.271-0.314,0.559-0.61,0.841-0.887
		c0.275-0.318,0.573-0.596,0.89-0.841c0.316-0.246,0.606-0.461,0.874-0.655l0.104-0.087c0.022,0.113,0.033,0.292,0.015,0.536
		c0.03,0.394,0.045,0.8,0.06,1.214c0.015,0.421,0.037,0.845,0.074,1.278c-0.007,0.441-0.007,0.882-0.011,1.324
		c0,0.441-0.004,0.884-0.004,1.323c0.008,0.923,0.015,1.842,0.019,2.763c0.004,0.92-0.011,1.845-0.041,2.779
		c0.012,0.479,0.015,0.955,0.026,1.435c0.011,0.48,0.033,0.952,0.078,1.421c0.022,0.518,0.037,1.016,0.041,1.494
		c0.011,0.478,0.041,0.973,0.093,1.477c0.037,0.271,0.067,0.536,0.097,0.789c0.022,0.251,0.06,0.515,0.089,0.783
		c0.03,0.275,0.075,0.547,0.127,0.811c0.052,0.266,0.115,0.551,0.193,0.848c0.082,0.301,0.16,0.588,0.238,0.871
		c0.07,0.281,0.171,0.581,0.305,0.912c0.187,0.428,0.365,0.781,0.521,1.061c0.23,0.418,0.513,0.802,0.848,1.155
		c0.108,0.093,0.212,0.188,0.32,0.277c0.101,0.093,0.23,0.197,0.387,0.32c0.246,0.171,0.506,0.324,0.781,0.448
		c0.127,0.047,0.271,0.099,0.432,0.158c0.152,0.058,0.316,0.104,0.483,0.136c0.172,0.036,0.32,0.058,0.439,0.065
		c0.127,0.007,0.261,0.007,0.424,0.007c0.487,0.03,0.975-0.022,1.466-0.151l0.164-0.046l-0.015-0.056l0.06-0.015l0.056-0.015
		l0.167-0.046l0.168-0.043c0.074-0.022,0.249-0.108,0.532-0.262c0.315-0.167,0.609-0.344,0.878-0.54
		c0.268-0.191,0.531-0.402,0.792-0.632c0.22-0.218,0.436-0.428,0.644-0.622c0.209-0.199,0.398-0.42,0.573-0.667
		c0.335-0.408,0.64-0.841,0.915-1.295c0.279-0.459,0.543-0.898,0.793-1.325c0.479-0.889,0.903-1.786,1.261-2.686
		c0.101-0.225,0.189-0.45,0.271-0.669c0.078-0.225,0.171-0.45,0.271-0.675c0.123-0.436,0.283-0.88,0.484-1.334
		c0.152-0.482,0.29-0.939,0.412-1.373c0.127-0.435,0.265-0.893,0.413-1.373c0.097-0.395,0.25-0.9,0.439-1.475
		c0.104,0.444,0.201,0.889,0.335,1.326c0.189,0.634,0.446,1.247,0.759,1.84c0.298,0.646,0.644,1.272,1.049,1.886
		c0.205,0.305,0.425,0.606,0.666,0.902c0.238,0.299,0.491,0.571,0.756,0.818c0.271,0.251,0.562,0.506,0.87,0.761
		c0.309,0.259,0.633,0.5,0.975,0.731c0.685,0.458,1.406,0.83,2.162,1.107c0.397,0.132,0.788,0.248,1.172,0.344
		c0.391,0.097,0.789,0.171,1.205,0.22c0.759,0.156,1.533,0.189,2.314,0.104c0.674-0.022,1.406-0.138,2.191-0.35
		c0.335-0.089,0.673-0.179,1.012-0.27c0.331-0.089,0.644-0.212,0.923-0.366c0.316-0.166,0.625-0.316,0.927-0.459
		c0.301-0.142,0.591-0.291,0.874-0.447c0.275-0.154,0.554-0.325,0.822-0.519c0.268-0.194,0.535-0.387,0.804-0.575
		c0.938-0.694,1.86-1.523,2.768-2.487c0.859-0.832,1.645-1.704,2.362-2.616c0.395-0.469,0.763-0.93,1.105-1.38
		c0.339-0.456,0.666-0.921,0.979-1.404c0.67-0.943,1.272-1.897,1.819-2.863c0.539-0.967,1.061-1.942,1.562-2.915
		c0.224-0.502,0.45-1.003,0.681-1.505c0.22-0.502,0.45-1.003,0.677-1.503c0.127-0.277,0.306-0.655,0.536-1.138
		c0.234-0.484,0.395-0.858,0.483-1.12c0.041-0.134,0.09-0.256,0.138-0.372c0.053-0.113,0.097-0.232,0.142-0.366l0.197-0.411
		l0.063-0.201l0.026-0.069c0.015-0.013,0.029-0.03,0.048-0.042c0.596-0.432,1.19-0.751,1.801-0.951
		c0.323-0.123,0.64-0.22,0.952-0.285c0.316-0.063,0.651-0.11,0.997-0.119c0.726-0.082,1.377-0.058,1.957,0.06
		c0.335,0.069,0.651,0.16,0.96,0.273c0.302,0.112,0.606,0.232,0.915,0.346c0.275,0.158,0.547,0.329,0.815,0.519
		c0.264,0.18,0.524,0.393,0.788,0.64c0.25,0.208,0.469,0.441,0.659,0.702c0.189,0.266,0.375,0.526,0.562,0.792
		c0.677,1.071,1.153,2.321,1.414,3.733c0.048,0.346,0.101,0.679,0.156,1.023c0.048,0.337,0.078,0.659,0.089,0.975l0.012,0.286
		l0.007,0.232l0.015,0.058l0.026,0.108l-0.026,0.126c0.016,0.037,0.016,0.065-0.003,0.089c-0.008,0.024-0.008,0.075,0.011,0.146
		c0.029,0.262,0.019,0.582-0.041,0.95c-0.048,0.679-0.186,1.334-0.387,1.954c-0.209,0.628-0.446,1.229-0.722,1.812
		c-0.261,0.618-0.584,1.209-0.964,1.756c-0.387,0.556-0.781,1.105-1.183,1.645c-0.834,0.965-1.809,1.955-2.913,2.952
		c-0.54,0.461-1.102,0.9-1.671,1.33c-0.573,0.432-1.131,0.854-1.686,1.282c-0.603,0.393-1.205,0.777-1.812,1.157
		c-0.603,0.376-1.231,0.75-1.875,1.116c-1.247,0.767-2.512,1.473-3.811,2.111c-1.298,0.644-2.611,1.276-3.929,1.903
		c-1.324,0.632-2.663,1.222-4.018,1.786c-1.362,0.562-2.72,1.101-4.07,1.62c-1.377,0.56-2.761,1.1-4.152,1.609
		c-1.392,0.511-2.79,0.993-4.2,1.443c-2.79,0.995-5.6,1.914-8.427,2.791c-2.847,0.924-5.704,1.793-8.562,2.621
		c-2.854,0.824-5.718,1.657-8.59,2.507c-2.906,0.854-5.801,1.678-8.684,2.477c-2.884,0.788-5.782,1.614-8.684,2.47l-2.185,0.641
		l-2.139,0.576l-4.223,1.135c-1.437,0.343-2.876,0.699-4.327,1.071c-1.455,0.365-2.895,0.722-4.331,1.068
		c-1.436,0.346-2.883,0.695-4.338,1.045c-1.451,0.354-2.917,0.707-4.39,1.061c-1.481,0.316-2.947,0.651-4.405,1.001
		c-1.453,0.35-2.919,0.707-4.388,1.063c-2.954,0.67-5.905,1.348-8.84,2.01c-2.938,0.677-5.897,1.369-8.883,2.091l-4.418,1.063
		c-0.741,0.164-1.483,0.343-2.234,0.54c-0.75,0.204-1.494,0.383-2.234,0.547c-0.744,0.152-1.49,0.335-2.242,0.535
		c-0.75,0.201-1.488,0.38-2.23,0.544l-4.464,1.131c-1.509,0.364-2.997,0.732-4.465,1.108c-1.466,0.372-2.971,0.767-4.505,1.18
		l-4.498,1.205c-0.767,0.205-1.525,0.417-2.27,0.637c-0.744,0.216-1.501,0.432-2.27,0.64l-2.234,0.654l-2.307,0.618l-4.559,1.406
		c-0.761,0.238-1.524,0.469-2.285,0.695c-0.763,0.224-1.546,0.458-2.338,0.711c-0.746,0.283-1.501,0.532-2.266,0.759
		c-0.765,0.22-1.54,0.477-2.323,0.767c-0.391,0.146-0.778,0.279-1.157,0.395c-0.379,0.126-0.767,0.257-1.157,0.401
		c-0.379,0.179-0.774,0.335-1.176,0.466c-0.394,0.122-0.789,0.264-1.179,0.405c-1.509,0.517-3.075,1.116-4.697,1.786
		c-0.82,0.297-1.618,0.609-2.397,0.938c-0.772,0.319-1.564,0.654-2.379,0.989c-0.809,0.335-1.617,0.677-2.426,1.034
		c-0.807,0.35-1.624,0.736-2.452,1.153c-0.804,0.372-1.619,0.767-2.448,1.19c-0.832,0.409-1.672,0.856-2.526,1.321
		c-0.865,0.428-1.721,0.889-2.567,1.388c-0.847,0.502-1.704,1.026-2.577,1.577c-0.878,0.543-1.756,1.127-2.651,1.741
		c-0.898,0.606-1.821,1.258-2.775,1.942c-0.938,0.726-1.884,1.484-2.822,2.284c-0.943,0.804-1.903,1.711-2.893,2.716
		c-1.053,1.027-2.039,2.121-2.947,3.267c-0.439,0.551-0.884,1.094-1.319,1.645c-0.443,0.551-0.871,1.153-1.282,1.815
		c1.758-1.492,3.672-2.798,5.741-3.925c2.07-1.12,4.278-1.994,6.617-2.623c4.21-1.127,8.394-1.377,12.561-0.748
		c4.169,0.621,8.043,1.969,11.636,4.029c3.586,2.054,6.758,4.751,9.515,8.089c2.759,3.341,4.848,7.146,6.269,11.433l1.427-1.261
		c0.971-0.767,1.99-1.578,3.058-2.411c0.515-0.409,1.042-0.818,1.587-1.221c0.538-0.397,1.09-0.788,1.652-1.176
		c0.253-0.223,0.519-0.435,0.804-0.625c0.283-0.193,0.567-0.387,0.871-0.588c0.262-0.193,0.541-0.379,0.844-0.58
		c0.302-0.193,0.581-0.387,0.847-0.573c0.558-0.387,1.137-0.781,1.717-1.168c0.579-0.395,1.17-0.781,1.768-1.183
		c0.606-0.357,1.207-0.733,1.789-1.124c0.581-0.395,1.176-0.767,1.782-1.124c0.599-0.401,1.202-0.784,1.808-1.16
		c0.605-0.38,1.226-0.752,1.874-1.124l1.829-1.071c0.303-0.201,0.612-0.391,0.938-0.573c0.326-0.189,0.64-0.36,0.945-0.524
		c0.61-0.36,1.228-0.722,1.856-1.086c0.629-0.361,1.267-0.726,1.911-1.094c0.644-0.376,1.286-0.726,1.918-1.075
		c0.634-0.347,1.272-0.703,1.918-1.072c1.302-0.707,2.591-1.398,3.878-2.098c1.282-0.7,2.578-1.377,3.89-2.043
		c0.646-0.368,1.291-0.718,1.924-1.045c0.644-0.328,1.302-0.663,1.998-1.005c0.647-0.372,1.302-0.715,1.959-1.027
		c0.662-0.312,1.315-0.654,1.959-1.026c0.692-0.343,1.363-0.662,2.003-0.975c0.642-0.312,1.31-0.641,2.001-0.975
		c0.681-0.38,1.345-0.726,1.985-1.035c0.646-0.309,1.315-0.636,2.002-0.975c2.707-1.316,5.398-2.615,8.071-3.898
		c2.677-1.284,5.37-2.567,8.087-3.84c1.357-0.64,2.723-1.272,4.107-1.897c1.384-0.625,2.745-1.258,4.107-1.894l8.203-3.844
		c1.396-0.654,2.771-1.291,4.126-1.927c1.358-0.647,2.734-1.306,4.115-1.987c0.695-0.342,1.392-0.677,2.083-1.004
		c0.699-0.327,1.392-0.651,2.084-0.997c0.383-0.179,0.74-0.354,1.071-0.521c0.327-0.167,0.662-0.334,1.005-0.506l2.023-1.012
		c2.697-1.347,5.391-2.671,8.081-3.955c2.693-1.294,5.395-2.593,8.104-3.91c2.712-1.272,5.424-2.567,8.125-3.88
		c2.709-1.313,5.439-2.638,8.178-3.955c2.73-1.361,5.446-2.718,8.137-4.066c2.697-1.347,5.395-2.777,8.092-4.282
		c1.324-0.746,2.653-1.496,3.984-2.244c1.329-0.748,2.646-1.531,3.955-2.355c1.317-0.787,2.615-1.604,3.899-2.45
		c1.272-0.854,2.533-1.763,3.769-2.72c0.614-0.478,1.231-0.959,1.85-1.434c0.613-0.48,1.209-0.975,1.781-1.475
		c1.276-1.09,2.434-2.167,3.486-3.231c0.551-0.58,1.071-1.181,1.578-1.806c0.494-0.621,0.967-1.267,1.413-1.935
		c0.518-0.729,0.953-1.431,1.321-2.121c0.356-0.724,0.703-1.479,1.034-2.271c0.13-0.391,0.249-0.787,0.357-1.188
		c0.107-0.396,0.204-0.806,0.294-1.222c0.081-0.411,0.148-0.824,0.193-1.228c0.056-0.405,0.097-0.83,0.134-1.269
		C247.221,49.054,247.202,48.637,247.172,48.231z M43.398,94.283c-0.082,0.744-0.231,1.525-0.456,2.344
		c-0.095,0.388-0.205,0.767-0.324,1.143c-0.123,0.372-0.253,0.74-0.396,1.098c-0.184,0.372-0.374,0.714-0.567,1.023
		c-0.199,0.312-0.417,0.621-0.655,0.926c-0.248,0.269-0.499,0.536-0.746,0.804c-0.251,0.269-0.521,0.521-0.822,0.759
		c-0.526,0.425-1.168,0.797-1.921,1.116c-0.357,0.179-0.716,0.328-1.086,0.443c-0.369,0.115-0.741,0.227-1.116,0.331
		c-0.074,0.015-0.171,0.029-0.285,0.045c-0.117,0.015-0.214,0.029-0.289,0.044c-0.264,0.074-0.454,0.104-0.578,0.097l-0.277,0.074
		c-0.087-0.015-0.188-0.007-0.298,0.022l-0.058,0.016l-0.054,0.015l-0.056,0.015l-0.128-0.029c-0.112,0.029-0.194,0.033-0.238,0.007
		c-0.357,0.015-0.692,0-1.001-0.029c-0.314-0.037-0.621-0.097-0.92-0.179c-0.603-0.156-1.135-0.417-1.593-0.774
		c-0.454-0.364-0.885-0.766-1.287-1.22c-0.441-0.446-0.822-0.941-1.153-1.496c-0.328-0.551-0.67-1.123-1.029-1.711
		c-0.162-0.312-0.318-0.633-0.465-0.953c-0.145-0.327-0.301-0.64-0.465-0.959c-0.141-0.365-0.266-0.715-0.372-1.042
		c-0.109-0.335-0.232-0.681-0.372-1.042c-0.236-0.74-0.448-1.466-0.64-2.18c-0.19-0.707-0.348-1.447-0.475-2.218
		c-0.29-1.525-0.519-3.059-0.692-4.591c-0.171-1.537-0.264-3.088-0.281-4.647c-0.108-3.099,0.017-6.217,0.377-9.363
		c0.06-0.376,0.106-0.761,0.144-1.149c0.035-0.389,0.102-0.78,0.197-1.167c0.058-0.379,0.119-0.751,0.181-1.129
		c0.06-0.377,0.136-0.761,0.234-1.146c0.311-1.527,0.694-3.012,1.149-4.459c0.24-0.744,0.488-1.472,0.737-2.181
		c0.253-0.707,0.528-1.406,0.826-2.087c0.29-0.716,0.595-1.401,0.924-2.05c0.326-0.647,0.683-1.306,1.064-1.968
		c0.393-0.627,0.811-1.233,1.259-1.812c0.443-0.581,0.936-1.144,1.472-1.689c1.045-1.04,2.221-1.957,3.533-2.75
		c0.309-0.205,0.63-0.376,0.973-0.53c0.337-0.15,0.687-0.314,1.04-0.491c0.076-0.019,0.154-0.052,0.244-0.097
		c0.091-0.039,0.169-0.076,0.246-0.097l0.264-0.128l0.283-0.074l1.01-0.271c0.636-0.169,1.25-0.194,1.843-0.073
		c0.329,0.032,0.59,0.104,0.779,0.212c0.275,0.125,0.502,0.305,0.685,0.536c0.199,0.15,0.387,0.4,0.562,0.751
		c0.205,0.309,0.355,0.653,0.452,1.025c0.128,0.324,0.234,0.677,0.316,1.057c0.082,0.377,0.14,0.781,0.175,1.215l0.113,1.772
		c-0.175,0.688-0.324,1.373-0.443,2.044c-0.119,0.675-0.251,1.353-0.391,2.028c-0.18,0.971-0.309,1.95-0.387,2.934
		c-0.077,0.98-0.145,1.962-0.205,2.939c-0.067,0.941-0.112,1.905-0.126,2.891c-0.015,0.986-0.015,1.96,0,2.915
		c0.042,1.955,0.136,3.873,0.281,5.757c0.134,1.853,0.344,3.758,0.63,5.724c0.013,0.201,0.041,0.37,0.082,0.521
		c0.039,0.149,0.06,0.303,0.062,0.465c0.046,0.471,0.099,0.928,0.158,1.371c0.06,0.446,0.106,0.885,0.142,1.315
		c0.069,0.865,0.136,1.706,0.201,2.532c0.056,0.825,0.098,1.659,0.125,2.492c0.032,0.432,0.056,0.849,0.061,1.246
		c0.008,0.398,0.011,0.822,0.008,1.262C43.537,92.561,43.478,93.38,43.398,94.283z M120.761,75.778
		c-0.214,0.54-0.459,1.043-0.733,1.518c-0.14,0.24-0.285,0.48-0.437,0.72c-0.156,0.244-0.32,0.487-0.499,0.735
		c-0.651,0.856-1.38,1.654-2.186,2.389c-0.775,0.69-1.616,1.216-2.524,1.578c-0.112,0.029-0.222,0.07-0.328,0.121
		c-0.108,0.048-0.216,0.087-0.329,0.115l-0.675,0.183l-0.167,0.046l-0.167,0.044c-0.084-0.017-0.184-0.013-0.298,0.019
		c-0.186,0.048-0.401,0.067-0.646,0.052c-0.401-0.011-0.757-0.056-1.058-0.138c-0.171-0.031-0.314-0.085-0.432-0.152
		c-0.119-0.067-0.25-0.147-0.393-0.227c-0.104-0.091-0.21-0.193-0.322-0.303c-0.112-0.113-0.222-0.232-0.335-0.365
		c-0.26-0.366-0.456-0.716-0.582-1.043c-0.352-0.707-0.61-1.6-0.778-2.679c-0.106-0.536-0.173-1.057-0.21-1.568
		c-0.038-0.511-0.067-1.043-0.099-1.598c0.011-2.207,0.275-4.362,0.794-6.464c0.234-1.066,0.556-2.115,0.959-3.146
		c0.028-0.047,0.047-0.091,0.056-0.134c0.007-0.044,0.026-0.089,0.054-0.136l0.182,0.673c0.231,0.859,0.516,1.626,0.854,2.296
		c0.348,0.708,0.774,1.395,1.276,2.063c0.125,0.169,0.258,0.334,0.402,0.495c0.143,0.164,0.275,0.328,0.401,0.495
		c0.048,0.026,0.087,0.058,0.114,0.089c0.03,0.034,0.067,0.062,0.115,0.087l0.017,0.056l0.015,0.058l0.054-0.015l0.103,0.154
		c0.208,0.183,0.359,0.303,0.458,0.361c1.172,1.086,2.493,1.974,3.958,2.664c0.361,0.145,0.737,0.275,1.129,0.391
		c0.393,0.114,0.8,0.216,1.222,0.301c0.21,0.026,0.387,0.058,0.538,0.099c0.15,0.039,0.331,0.071,0.538,0.095
		C120.815,75.743,120.8,75.769,120.761,75.778z M122.64,67.186c-0.021,0.59-0.058,1.168-0.104,1.743
		c-0.032,0.331-0.076,0.653-0.132,0.965c-0.054,0.318-0.097,0.638-0.13,0.969c-0.169-0.034-0.279-0.067-0.326-0.093
		c-0.134-0.046-0.318-0.134-0.556-0.271c-0.197-0.147-0.385-0.277-0.555-0.391c-0.171-0.117-0.338-0.253-0.502-0.409
		c-0.705-0.692-1.278-1.403-1.711-2.128c-0.058-0.065-0.091-0.115-0.103-0.154c-0.009-0.035-0.042-0.087-0.099-0.152l-0.015-0.058
		l-0.015-0.056c-0.039,0.011-0.06,0-0.074-0.041l-0.043-0.166c-0.136-0.207-0.223-0.383-0.262-0.532
		c-0.134-0.205-0.23-0.411-0.286-0.614c-0.054-0.205-0.128-0.4-0.212-0.575c-0.062-0.227-0.128-0.437-0.201-0.638
		c-0.075-0.199-0.119-0.398-0.132-0.597c-0.048-0.19-0.099-0.396-0.136-0.623c-0.044-0.233-0.069-0.445-0.082-0.644
		c-0.073-0.418-0.123-0.828-0.147-1.22c-0.024-0.393-0.054-0.805-0.091-1.237c-0.065-0.385-0.056-0.808,0.021-1.271
		c0.017-0.084,0.031-0.177,0.046-0.283c0.009-0.104,0.026-0.195,0.043-0.281c0.091-0.264,0.164-0.443,0.217-0.54
		c0.231-0.781,0.677-1.285,1.341-1.503c0.103-0.067,0.229-0.119,0.378-0.16c0.074-0.019,0.134-0.026,0.175-0.019
		c0.041,0.008,0.082,0.008,0.121-0.001c0.11-0.03,0.218,0.001,0.322,0.093c0.087,0.021,0.225,0.082,0.413,0.191
		c0.238,0.138,0.523,0.445,0.845,0.916c0.312,0.398,0.549,0.835,0.714,1.312c0.216,0.506,0.407,1.025,0.571,1.562
		c0.164,0.54,0.303,1.092,0.413,1.663c0.076,0.581,0.153,1.163,0.227,1.743c0.076,0.58,0.11,1.153,0.099,1.717
		C122.672,66.002,122.665,66.6,122.64,67.186z M170.389,32.741c-0.097,0.248-0.186,0.504-0.275,0.767
		c-0.052,0.097-0.085,0.166-0.097,0.207c-0.007,0.042-0.037,0.111-0.093,0.207c-0.033-0.43-0.06-0.856-0.07-1.276
		c-0.016-0.415-0.038-0.837-0.075-1.271l-0.011-1.622l-0.07-1.604c-0.022-0.556-0.053-1.092-0.067-1.607
		c-0.019-0.513-0.022-1.055-0.015-1.622c0.015-0.24,0.007-0.489-0.019-0.742c-0.026-0.253-0.041-0.523-0.034-0.804
		c0.016-0.244,0.026-0.499,0.037-0.761c0.008-0.262,0.022-0.519,0.037-0.763l-0.037-0.354l0.078-0.379l0.026-0.789l0.134-1.539
		c0.056-0.534,0.09-1.045,0.104-1.529c0.008-0.485,0.045-0.977,0.111-1.473c0.074-0.465,0.152-0.936,0.224-1.414
		c0.074-0.481,0.148-0.934,0.238-1.359c0.06-0.216,0.126-0.424,0.193-0.622c0.066-0.197,0.134-0.405,0.193-0.623
		c0.074-0.177,0.148-0.342,0.23-0.484c0.082-0.141,0.152-0.258,0.208-0.355l0.291-0.261l0.056-0.015l-0.012-0.054l-0.022-0.058
		l-0.015-0.054l0.06-0.017c0.045,0.028,0.171,0.116,0.372,0.261c0.06,0.067,0.119,0.143,0.179,0.227
		c0.063,0.082,0.111,0.177,0.138,0.29c0.056,0.065,0.115,0.162,0.167,0.283c0.053,0.132,0.116,0.246,0.183,0.344
		c0.101,0.218,0.183,0.446,0.242,0.687c0.066,0.244,0.13,0.479,0.189,0.703c0.146,0.524,0.22,1.047,0.238,1.562
		c-0.008,0.121,0.007,0.248,0.041,0.375c0.037,0.132,0.052,0.261,0.044,0.383l-0.011,0.181l-0.011,0.184l-0.008,0.424
		c0,1.042-0.041,2.094-0.119,3.155c-0.074,1.066-0.186,2.137-0.339,3.22c-0.331,2.054-0.773,4.139-1.328,6.252l-0.483,1.57
		l-0.011,0.182l-0.086,0.143c-0.015,0.088-0.037,0.151-0.063,0.199c-0.029,0.046-0.052,0.113-0.07,0.197
		c-0.041,0.132-0.138,0.379-0.283,0.738C170.582,32.261,170.485,32.5,170.389,32.741z M203.032,44.834
		c-0.148-1.006-0.189-1.916-0.126-2.734c0.025-0.487,0.066-0.98,0.115-1.473c0.048-0.493,0.13-0.975,0.241-1.449
		c0.201-0.895,0.532-1.827,0.997-2.792c0.209-0.417,0.439-0.819,0.696-1.208c0.219-0.381,0.517-0.761,0.896-1.144
		c0.658-0.696,1.402-1.217,2.229-1.561c0.395-0.181,0.804-0.292,1.235-0.33c0.197-0.011,0.401-0.037,0.609-0.074
		c0.213-0.032,0.425-0.043,0.633-0.015c0.398,0.011,0.759,0.075,1.075,0.194c0.164,0.035,0.298,0.087,0.402,0.162
		c0.101,0.073,0.193,0.136,0.29,0.193c0.163,0.156,0.257,0.291,0.29,0.402c0.056,0.062,0.097,0.143,0.119,0.236
		c0.029,0.093,0.074,0.191,0.142,0.294c0.021,0.074,0.056,0.167,0.104,0.275c0.049,0.104,0.094,0.232,0.131,0.383
		c0.041,0.148,0.089,0.29,0.145,0.415c0.053,0.125,0.086,0.289,0.101,0.482c0.049,0.188,0.093,0.357,0.134,0.506
		c0.037,0.151,0.063,0.326,0.078,0.521c0.053,0.186,0.078,0.372,0.09,0.547c0,0.177,0.015,0.367,0.029,0.563
		c0.022,0.395,0.026,0.785,0.015,1.168c-0.021,0.389-0.081,0.755-0.189,1.105c-0.015,0.402-0.097,0.766-0.249,1.088
		c-0.045,0.128-0.097,0.275-0.156,0.431s-0.115,0.283-0.168,0.376c-0.056,0.097-0.089,0.164-0.097,0.207
		c-0.011,0.043-0.048,0.091-0.107,0.149l-0.045,0.07l-0.037,0.073c-0.029,0.048-0.06,0.085-0.089,0.113
		c-0.037,0.032-0.067,0.069-0.09,0.114c-0.16,0.164-0.309,0.322-0.446,0.48c-0.138,0.16-0.286,0.318-0.438,0.48
		c-0.328,0.29-0.645,0.554-0.96,0.796c-0.316,0.246-0.647,0.477-0.994,0.687c-0.65,0.418-1.413,0.703-2.292,0.857
		c-0.126-0.003-0.234,0.002-0.327,0.026c-0.089,0.026-0.197,0.035-0.323,0.026c-0.074,0.021-0.131,0.026-0.179,0.019
		c-0.037-0.007-0.097-0.005-0.171,0.017c-0.086-0.017-0.138-0.024-0.156-0.022c-0.019,0.007-0.071,0.003-0.152-0.015
		c-0.518,0.019-0.994-0.035-1.429-0.158c-0.473-0.113-0.972-0.26-1.5-0.442L203.032,44.834z"/>
</g>
</svg>
