<?xml version="1.0" encoding="UTF-8" standalone="no"?>
<svg width="25px" height="31px" viewBox="0 0 25 31" version="1.1" xmlns="http://www.w3.org/2000/svg" xmlns:xlink="http://www.w3.org/1999/xlink" xmlns:sketch="http://www.bohemiancoding.com/sketch/ns">
    <!-- Generator: Sketch 3.3.3 (12081) - http://www.bohemiancoding.com/sketch -->
    <title>leandro-incetta-logo</title>
    <desc>Created with Sketch.</desc>
    <defs></defs>
    <g id="Page-1" stroke="none" stroke-width="1" fill="none" fill-rule="evenodd" sketch:type="MSPage">
        <g id="Home" sketch:type="MSArtboardGroup" transform="translate(-370.000000, -28.000000)" fill="#000000">
            <g id="Header" sketch:type="MSLayerGroup" transform="translate(370.000000, 26.000000)">
                <g id="leandro-incetta-logo" sketch:type="MSShapeGroup">
                    <path d="M14.2425,6.9325 L18.5,6.9325 L18.5,10.44 L14.2425,10.44 L14.2425,6.9325 Z" id="Fill-1"></path>
                    <path d="M14.2425,13.925 L18.5,13.925 L18.5,27.8425 L14.2425,27.8425 L14.2425,13.925 Z" id="Fill-2"></path>
                    <path d="M6.5025,24.3325 L10.76,24.3325 L10.76,27.84 L6.5025,27.84 L6.5025,24.3325 Z" id="Fill-3"></path>
                    <path d="M6.5025,6.9325 L10.76,6.9325 L10.76,20.85 L6.5025,20.85 L6.5025,6.9325 Z" id="Fill-4"></path>
                    <path d="M0.995,2.2125 L24.0075,2.2125 L24.0075,32.5725 L0.995,32.5725 L0.995,2.2125 Z M3.495,30.0725 L21.5075,30.0725 L21.5075,4.7125 L3.495,4.7125 L3.495,30.0725 Z" id="Fill-5"></path>
                </g>
            </g>
        </g>
    </g>
</svg>