<?xml version="1.0" encoding="UTF-8" standalone="no"?>
<svg width="15px" height="24px" viewBox="0 0 15 24" version="1.1" xmlns="http://www.w3.org/2000/svg" xmlns:xlink="http://www.w3.org/1999/xlink" xmlns:sketch="http://www.bohemiancoding.com/sketch/ns">
    <!-- Generator: Sketch 3.3.3 (12081) - http://www.bohemiancoding.com/sketch -->
    <title>social-tumblr</title>
    <desc>Created with Sketch.</desc>
    <defs></defs>
    <g id="Page-1" stroke="none" stroke-width="1" fill="none" fill-rule="evenodd" sketch:type="MSPage">
        <g id="Home" sketch:type="MSArtboardGroup" transform="translate(-814.000000, -2229.000000)" fill="#9B9B9B">
            <g id="Footer" sketch:type="MSLayerGroup" transform="translate(611.000000, 2140.000000)">
                <g id="Group" transform="translate(0.000000, 89.000000)" sketch:type="MSShapeGroup">
                    <g id="social-tumblr" transform="translate(203.000000, 0.000000)">
                        <path d="M11.1685714,20.0388571 C10.475619,20.0388571 9.87028571,19.8786667 9.35314286,19.5579048 C8.94952381,19.3198095 8.6807619,19.0095238 8.54628571,18.6266667 C8.40114286,18.2542857 8.32895238,17.364381 8.32895238,15.9571429 L8.32895238,9.84285714 L13.9775238,9.84285714 L13.9775238,6.10285714 L8.32895238,6.10285714 L8.32895238,0.0817142857 L4.93009524,0.0817142857 C4.77485714,1.30247619 4.49561905,2.31619048 4.09219048,3.12361905 C3.68857143,3.92019048 3.15580952,4.60304762 2.49371429,5.172 C1.83142857,5.73085714 1.02971429,6.16533333 0.0881904762,6.47561905 L0.0881904762,9.8432381 L2.72628571,9.8432381 L2.72628571,18.2078095 C2.72628571,19.3148571 2.84019048,20.1478095 3.06761905,20.7062857 C3.28495238,21.2653333 3.69371429,21.8081905 4.29371429,22.336 C4.91447619,22.8531429 5.62838095,23.2411429 6.4352381,23.499619 C7.27333333,23.7790476 8.23542857,23.9186667 9.32171429,23.9186667 C10.3150476,23.9186667 11.2097143,23.8201905 12.0064762,23.6238095 C12.7927619,23.4478095 13.7137143,23.111619 14.7689524,22.6148571 L14.7689524,18.8592381 C13.5790476,19.6459048 12.3790476,20.0388571 11.1685714,20.0388571 L11.1685714,20.0388571 Z" id="Shape"></path>
                    </g>
                </g>
            </g>
        </g>
    </g>
</svg>