<?xml version="1.0" encoding="UTF-8" standalone="no"?>
<svg width="30px" height="24px" viewBox="0 0 30 24" version="1.1" xmlns="http://www.w3.org/2000/svg" xmlns:xlink="http://www.w3.org/1999/xlink" xmlns:sketch="http://www.bohemiancoding.com/sketch/ns">
    <!-- Generator: Sketch 3.3.3 (12081) - http://www.bohemiancoding.com/sketch -->
    <title>social-twitter</title>
    <desc>Created with Sketch.</desc>
    <defs></defs>
    <g id="Page-1" stroke="none" stroke-width="1" fill="none" fill-rule="evenodd" sketch:type="MSPage">
        <g id="Home" sketch:type="MSArtboardGroup" transform="translate(-611.000000, -2229.000000)" fill="#9B9B9B">
            <g id="Footer" sketch:type="MSLayerGroup" transform="translate(611.000000, 2140.000000)">
                <g id="Group" transform="translate(0.000000, 89.000000)" sketch:type="MSShapeGroup">
                    <g id="social-twitter">
                        <path d="M29.2530566,2.99796226 C28.109434,3.48996226 26.9653585,3.79720755 25.8221887,3.92060377 C27.113434,3.14581132 27.986717,2.05132075 28.4418113,0.637132075 C27.2608302,1.33788679 26.0003774,1.81743396 24.66,2.07577358 C23.4792453,0.821433962 22.0283774,0.194037736 20.3064906,0.194037736 C18.6586415,0.194037736 17.2537358,0.775018868 16.0913208,1.93720755 C14.9291321,3.09939623 14.3481509,4.50430189 14.3481509,6.15215094 C14.3481509,6.59479245 14.397283,7.04988679 14.4957736,7.51720755 C12.0606792,7.39426415 9.77637736,6.78249057 7.64264151,5.68188679 C5.50890566,4.5810566 3.69803774,3.11456604 2.21003774,1.28218868 C1.66890566,2.20437736 1.39833962,3.20671698 1.39833962,4.28898113 C1.39833962,5.30966038 1.63811321,6.25675472 2.11788679,7.12981132 C2.59743396,8.00286792 3.24316981,8.70996226 4.05486792,9.25109434 C3.09554717,9.21418868 2.19781132,8.96196226 1.36166038,8.49464151 L1.36166038,8.56845283 C1.36166038,10.0073208 1.81358491,11.270717 2.71743396,12.3593208 C3.62128302,13.4479245 4.76196226,14.133283 6.13924528,14.4160755 C5.62279245,14.5512453 5.1,14.6189434 4.57132075,14.6189434 C4.2269434,14.6189434 3.85177358,14.5881509 3.44603774,14.5270189 C3.82732075,15.7197736 4.52830189,16.7003774 5.54898113,17.4690566 C6.56966038,18.2379623 7.72573585,18.6341887 9.01698113,18.6590943 C6.85267925,20.3558491 4.38701887,21.2044528 1.62,21.2044528 C1.09109434,21.2044528 0.61154717,21.1802264 0.181132075,21.1308679 C2.94815094,22.9138868 5.99796226,23.805283 9.33079245,23.805283 C11.4459623,23.805283 13.4320755,23.4704151 15.2886792,22.8002264 C17.1459623,22.1300377 18.7322264,21.2323019 20.0481509,20.1067925 C21.3638491,18.9817358 22.4984151,17.6873208 23.4513962,16.2237736 C24.4043774,14.7604528 25.1144151,13.2326038 25.5819623,11.64 C26.049283,10.0471698 26.2829434,8.45184906 26.2829434,6.85290566 C26.2829434,6.5085283 26.2768302,6.25041509 26.2643774,6.07811321 C27.4329057,5.22996226 28.4291321,4.2029434 29.2530566,2.99796226 L29.2530566,2.99796226 Z" id="Shape"></path>
                    </g>
                </g>
            </g>
        </g>
    </g>
</svg>