<?xml version="1.0" encoding="UTF-8" standalone="no"?>
<svg width="26px" height="24px" viewBox="0 0 26 24" version="1.1" xmlns="http://www.w3.org/2000/svg" xmlns:xlink="http://www.w3.org/1999/xlink" xmlns:sketch="http://www.bohemiancoding.com/sketch/ns">
    <!-- Generator: Sketch 3.3.3 (12081) - http://www.bohemiancoding.com/sketch -->
    <title>social-linkedin</title>
    <desc>Created with Sketch.</desc>
    <defs></defs>
    <g id="Page-1" stroke="none" stroke-width="1" fill="none" fill-rule="evenodd" sketch:type="MSPage">
        <g id="Home" sketch:type="MSArtboardGroup" transform="translate(-666.000000, -2229.000000)" fill="#9B9B9B">
            <g id="Footer" sketch:type="MSLayerGroup" transform="translate(611.000000, 2140.000000)">
                <g id="Group" transform="translate(0.000000, 89.000000)" sketch:type="MSShapeGroup">
                    <g id="social-linkedin" transform="translate(55.000000, 0.000000)">
                        <g id="Group">
                            <rect id="Rectangle-path" x="0.3954" y="7.8124" width="5.3772" height="16.1478"></rect>
                            <path d="M23.4196,9.2874 C22.2902,8.0544 20.7962,7.4378 18.9388,7.4378 C18.2544,7.4378 17.6324,7.522 17.0728,7.6904 C16.5134,7.8588 16.041,8.095 15.6552,8.3992 C15.2696,8.7034 14.9626,8.9858 14.7346,9.2464 C14.5178,9.494 14.306,9.7822 14.099,10.1084 L14.099,7.8122 L8.738,7.8122 L8.7544,8.5944 C8.7654,9.116 8.7708,10.7236 8.7708,13.4176 C8.7708,16.1118 8.76,19.6258 8.7382,23.9602 L14.099,23.9602 L14.099,14.9492 C14.099,14.3952 14.1586,13.9554 14.2782,13.6292 C14.5066,13.075 14.851,12.6108 15.313,12.2362 C15.7748,11.8612 16.3478,11.6738 17.0322,11.6738 C17.9664,11.6738 18.6536,11.997 19.0936,12.6434 C19.5334,13.2896 19.7534,14.1832 19.7534,15.3238 L19.7534,23.9598 L25.1144,23.9598 L25.1144,14.705 C25.114,12.3258 24.5494,10.52 23.4196,9.2874 L23.4196,9.2874 Z" id="Shape"></path>
                            <path d="M3.1166,0.0398 C2.215,0.0398 1.4846,0.3034 0.925,0.8302 C0.3654,1.357 0.0858,2.0222 0.0858,2.8262 C0.0858,3.619 0.3574,4.2818 0.9006,4.814 C1.4436,5.3462 2.1606,5.6124 3.0514,5.6124 L3.084,5.6124 C3.9966,5.6124 4.7326,5.3464 5.292,4.814 C5.8514,4.2818 6.1256,3.6192 6.1148,2.8262 C6.104,2.0222 5.8268,1.357 5.2838,0.8302 C4.7408,0.3032 4.0182,0.0398 3.1166,0.0398 L3.1166,0.0398 Z" id="Shape"></path>
                        </g>
                    </g>
                </g>
            </g>
        </g>
    </g>
</svg>