<?xml version="1.0" encoding="UTF-8" standalone="no"?>
<svg width="24px" height="24px" viewBox="0 0 24 24" version="1.1" xmlns="http://www.w3.org/2000/svg" xmlns:xlink="http://www.w3.org/1999/xlink" xmlns:sketch="http://www.bohemiancoding.com/sketch/ns">
    <!-- Generator: Sketch 3.3.3 (12081) - http://www.bohemiancoding.com/sketch -->
    <title>social-dribbble</title>
    <desc>Created with Sketch.</desc>
    <defs></defs>
    <g id="Page-1" stroke="none" stroke-width="1" fill="none" fill-rule="evenodd" sketch:type="MSPage">
        <g id="Home" sketch:type="MSArtboardGroup" transform="translate(-716.000000, -2229.000000)" fill="#9B9B9B">
            <g id="Footer" sketch:type="MSLayerGroup" transform="translate(611.000000, 2140.000000)">
                <g id="Group" transform="translate(0.000000, 89.000000)" sketch:type="MSShapeGroup">
                    <g id="social-dribbble" transform="translate(105.000000, 0.000000)">
                        <path d="M22.32,6.01752381 C21.2542857,4.19161905 19.8085714,2.74590476 17.9826667,1.68019048 C16.156381,0.61447619 14.1626667,0.0817142857 12.0001905,0.0817142857 C9.83790476,0.0817142857 7.84361905,0.61447619 6.01771429,1.68019048 C4.19161905,2.74571429 2.74590476,4.19142857 1.68019048,6.01752381 C0.614285714,7.84361905 0.0815238095,9.83790476 0.0815238095,12 C0.0815238095,14.1622857 0.61447619,16.1561905 1.68,17.9824762 C2.74571429,19.8081905 4.19142857,21.2540952 6.01752381,22.3198095 C7.84361905,23.3855238 9.83771429,23.9182857 12,23.9182857 C14.1622857,23.9182857 16.1565714,23.3855238 17.9824762,22.3198095 C19.808381,21.2542857 21.2540952,19.808381 22.3198095,17.9824762 C23.3853333,16.156381 23.9180952,14.1620952 23.9180952,12 C23.9180952,9.83771429 23.3853333,7.84342857 22.32,6.01752381 L22.32,6.01752381 Z M12,1.81980952 C14.5655238,1.81980952 16.8055238,2.66819048 18.7194286,4.3647619 L18.5255238,4.63619048 C18.4478095,4.74495238 18.2539048,4.95428571 17.9434286,5.2647619 C17.6331429,5.57504762 17.2942857,5.87009524 16.9270476,6.14933333 C16.559619,6.4287619 16.0607619,6.74685714 15.4295238,7.10380952 C14.7982857,7.4607619 14.1259048,7.77390476 13.412,8.04285714 C12.2222857,5.84933333 10.9499048,3.87333333 9.59447619,2.11466667 C10.412,1.91809524 11.2137143,1.81980952 12,1.81980952 L12,1.81980952 Z M4.02361905,5.68361905 C5.0167619,4.432 6.22704762,3.46971429 7.65485714,2.79733333 C8.93771429,4.50438095 10.1998095,6.45980952 11.4413333,8.66342857 C8.29619048,9.49104762 5.16152381,9.90495238 2.03714286,9.9047619 C2.36838095,8.34266667 3.03047619,6.93542857 4.02361905,5.68361905 L4.02361905,5.68361905 Z M2.50247619,15.6704762 C2.0472381,14.5064762 1.81961905,13.2830476 1.81961905,12 C1.81961905,11.8550476 1.82495238,11.7464762 1.8352381,11.6740952 C5.58057143,11.6740952 9.06190476,11.1931429 12.2794286,10.2308571 C12.6104762,10.8721905 12.8847619,11.4464762 13.1019048,11.9535238 C13.0601905,11.9740952 12.9935238,11.9973333 12.9001905,12.0232381 C12.8068571,12.0491429 12.739619,12.0670476 12.6980952,12.0775238 L12.124,12.2794286 C11.7306667,12.4241905 11.2158095,12.672381 10.5798095,13.0241905 C9.94361905,13.3761905 9.26857143,13.7950476 8.55466667,14.2813333 C7.8407619,14.7678095 7.10361905,15.4118095 6.3432381,16.2137143 C5.58285714,17.0154286 4.944,17.8765714 4.42666667,18.7973333 C3.59904762,17.8765714 2.95771429,16.8340952 2.50247619,15.6704762 L2.50247619,15.6704762 Z M12,22.180381 C9.57904762,22.180381 7.4167619,21.404381 5.51314286,19.8525714 L5.74590476,20.0232381 C6.108,19.2264762 6.6407619,18.4609524 7.34438095,17.7264762 C8.048,16.992 8.72552381,16.3994286 9.37733333,15.9493333 C10.0291429,15.4994286 10.7377143,15.0754286 11.5034286,14.6767619 C12.2689524,14.2784762 12.7912381,14.0249524 13.0706667,13.9165714 C13.3500952,13.8078095 13.5725714,13.7222857 13.7380952,13.660381 L13.7691429,13.6447619 L13.8001905,13.6447619 C14.8139048,16.303619 15.5382857,18.8798095 15.9727619,21.3731429 C14.6899048,21.9112381 13.3657143,22.1801905 12,22.180381 L12,22.180381 Z M20.5666667,17.5015238 C19.8009524,18.6860952 18.8438095,19.6664762 17.6958095,20.4422857 C17.2712381,18.0628571 16.6095238,15.6365714 15.7091429,13.164 C17.768,12.8430476 19.883619,12.9931429 22.0561905,13.6137143 C21.8285714,15.0207619 21.332,16.3167619 20.5666667,17.5015238 L20.5666667,17.5015238 Z M22.0249524,11.860381 C21.9215238,11.8398095 21.7921905,11.816381 21.6369524,11.7906667 C21.4819048,11.7649524 21.2929524,11.7337143 21.0704762,11.6975238 C20.8481905,11.6613333 20.599619,11.6278095 20.3255238,11.5967619 C20.0514286,11.5657143 19.7592381,11.5373333 19.4485714,11.5114286 C19.1382857,11.4855238 18.8072381,11.4649524 18.455619,11.4493333 C18.1034286,11.4339048 17.7466667,11.4260952 17.3845714,11.4260952 C17.0226667,11.4260952 16.6422857,11.4365714 16.2441905,11.4571429 C15.8459048,11.4775238 15.4605714,11.5140952 15.0881905,11.5657143 C15.0569524,11.5139048 15.0182857,11.4285714 14.9718095,11.3095238 C14.9253333,11.1906667 14.8914286,11.1 14.8712381,11.0379048 C14.6744762,10.6034286 14.4468571,10.112 14.188,9.56380952 C14.9019048,9.27390476 15.5822857,8.94038095 16.2291429,8.56266667 C16.875619,8.18495238 17.3925714,7.84895238 17.7807619,7.55409524 C18.1687619,7.25904762 18.536,6.94609524 18.8826667,6.61504762 C19.2291429,6.284 19.4540952,6.05390476 19.5577143,5.92457143 C19.6613333,5.79504762 19.759619,5.66838095 19.8525714,5.54438095 L19.8681905,5.5287619 C21.3786667,7.37028571 22.1497143,9.49104762 22.180381,11.8914286 L22.0249524,11.860381 L22.0249524,11.860381 Z" id="Shape"></path>
                    </g>
                </g>
            </g>
        </g>
    </g>
</svg>